<?xml version="1.0" encoding="UTF-8"?>
<svg version="1.1" xmlns="http://www.w3.org/2000/svg" width="478" height="98">
<path d="M0 0 C157.74 0 315.48 0 478 0 C478 32.34 478 64.68 478 98 C320.26 98 162.52 98 0 98 C0 65.66 0 33.32 0 0 Z " fill="#F7F5F3" transform="translate(0,0)"/>
<path d="M0 0 C1 1 1 1 1.11352539 3.86743164 C1.10828857 5.11903076 1.10305176 6.37062988 1.09765625 7.66015625 C1.09553383 8.65685585 1.09553383 8.65685585 1.09336853 9.6736908 C1.08775518 11.80333899 1.07520054 13.93288339 1.0625 16.0625 C1.05748671 17.50325369 1.05292351 18.94400903 1.04882812 20.38476562 C1.03778145 23.92321102 1.02050792 27.46159539 1 31 C-0.65 31.33 -2.3 31.66 -4 32 C-4 33.32 -4 34.64 -4 36 C3.92 36 11.84 36 20 36 C19.67 34.35 19.34 32.7 19 31 C20.3125 29.1875 20.3125 29.1875 22 28 C22.66 28 23.32 28 24 28 C24.45375 28.763125 24.9075 29.52625 25.375 30.3125 C27.01243796 33.39905137 27.01243796 33.39905137 31 36 C34.3 36.33 37.6 36.66 41 37 C41 44.92 41 52.84 41 61 C-92.32 61 -225.64 61 -363 61 C-358 57 -358 57 -355.89453125 55.421875 C-348.14169944 49.19633651 -340.11440584 38.95304509 -338 29 C-337.4740625 29.26554687 -336.948125 29.53109375 -336.40625 29.8046875 C-335.6121875 30.19914062 -334.818125 30.59359375 -334 31 C-332.49953125 31.74636719 -332.49953125 31.74636719 -330.96875 32.5078125 C-317.23380064 38.91126862 -306.09137829 37.47397179 -292 33 C-291.01 32.34 -290.02 31.68 -289 31 C-286.8125 31.375 -286.8125 31.375 -285 32 C-285 32.66 -285 33.32 -285 34 C-284.05125 34.144375 -283.1025 34.28875 -282.125 34.4375 C-279 35 -279 35 -277 36 C-271.35229466 36.37034133 -268.79636 36.11115243 -264 33 C-261.1875 32.8125 -261.1875 32.8125 -259 33 C-259 33.66 -259 34.32 -259 35 C-254.03244154 36.65585282 -249.19070275 36.1623147 -244.07421875 35.46484375 C-237.85123983 34.74749748 -231.67946254 35.13697386 -225.4375 35.4375 C-224.23802734 35.48970703 -223.03855469 35.54191406 -221.80273438 35.59570312 C-218.86815657 35.72431012 -215.93401479 35.85922092 -213 36 C-213 35.01 -213 34.02 -213 33 C-214.11375 32.896875 -215.2275 32.79375 -216.375 32.6875 C-217.57125 32.460625 -218.7675 32.23375 -220 32 C-223.03197396 27.45203906 -222.36842639 22.97591978 -222.375 17.625 C-222.39949219 16.5834375 -222.42398438 15.541875 -222.44921875 14.46875 C-222.47855537 6.82167054 -222.47855537 6.82167054 -220.13671875 2.80078125 C-218 1 -218 1 -215.4375 0.5625 C-213 1 -213 1 -210 3 C-208.0103005 3.39013716 -206.00980131 3.73202649 -204 4 C-204.01740234 5.73636719 -204.01740234 5.73636719 -204.03515625 7.5078125 C-204.04454077 9.04687338 -204.05364026 10.58593601 -204.0625 12.125 C-204.07087891 12.88554688 -204.07925781 13.64609375 -204.08789062 14.4296875 C-204.10646509 18.7389644 -203.86117265 22.75516474 -203 27 C-202.01 27.33 -201.02 27.66 -200 28 C-198.82939751 29.48698154 -197.65973185 30.97715486 -196.57421875 32.52734375 C-191.55674483 37.22110968 -184.13514749 36.26648294 -177.75 36.1875 C-176.74453125 36.18685547 -175.7390625 36.18621094 -174.703125 36.18554688 C-169.68846633 36.36128568 -169.68846633 36.36128568 -165 35 C-165 35.66 -165 36.32 -165 37 C-162.525 35.02 -162.525 35.02 -160 33 C-159.67 33.66 -159.34 34.32 -159 35 C-150.09 35 -141.18 35 -132 35 C-131.67 34.34 -131.34 33.68 -131 33 C-132.134375 32.855625 -133.26875 32.71125 -134.4375 32.5625 C-138 32 -138 32 -139 31 C-139.08669432 29.5112814 -139.10703494 28.018555 -139.09765625 26.52734375 C-139.09443359 25.62822266 -139.09121094 24.72910156 -139.08789062 23.80273438 C-139.07951172 22.85720703 -139.07113281 21.91167969 -139.0625 20.9375 C-139.05798828 19.98810547 -139.05347656 19.03871094 -139.04882812 18.06054688 C-139.0370011 15.70696935 -139.02052025 13.35351523 -139 11 C-137.96359375 10.95101562 -136.9271875 10.90203125 -135.859375 10.8515625 C-134.48955792 10.77650403 -133.11976752 10.70095753 -131.75 10.625 C-131.06808594 10.5940625 -130.38617188 10.563125 -129.68359375 10.53125 C-125.9573977 10.31419004 -123.22937574 9.86537001 -120 8 C-118.96875 7.855625 -117.9375 7.71125 -116.875 7.5625 C-115.92625 7.376875 -114.9775 7.19125 -114 7 C-113.34 6.01 -112.68 5.02 -112 4 C-111.34 4 -110.68 4 -110 4 C-110 8.95 -110 13.9 -110 19 C-109.34 19 -108.68 19 -108 19 C-107.67 21.64 -107.34 24.28 -107 27 C-106.34 27 -105.68 27 -105 27 C-103.9171875 28.3921875 -103.9171875 28.3921875 -102.8125 29.8125 C-99.17661751 34.24471411 -95.59086926 35.69519185 -90.01171875 36.3515625 C-82.30945675 36.69549429 -76.26426964 35.66612264 -70 31 C-64.39151275 25.19722335 -63.85370047 19.47358908 -63.4375 11.75 C-63.39431641 11.00492188 -63.35113281 10.25984375 -63.30664062 9.4921875 C-63.20103275 7.661651 -63.10005799 5.83084824 -63 4 C-62.01 4.99 -61.02 5.98 -60 7 C-59.67 5.35 -59.34 3.7 -59 2 C-58.01 2 -57.02 2 -56 2 C-56 11.24 -56 20.48 -56 30 C-56.99 30 -57.98 30 -59 30 C-59.33 32.31 -59.66 34.62 -60 37 C-52.41 37 -44.82 37 -37 37 C-36.67 36.34 -36.34 35.68 -36 35 C-23.13 35.495 -23.13 35.495 -10 36 C-10 35.01 -10 34.02 -10 33 C-10.804375 32.855625 -11.60875 32.71125 -12.4375 32.5625 C-15 32 -15 32 -16 31 C-17.19465056 8.16272649 -17.19465056 8.16272649 -11.9375 1.3125 C-7.94405056 -0.4718072 -4.31681682 -0.54406162 0 0 Z " fill="#F7F6F5" transform="translate(437,37)"/>
<path d="M0 0 C14.870625 -0.12375 29.74125 -0.2475 45.0625 -0.375 C49.74961182 -0.42962402 54.43672363 -0.48424805 59.26586914 -0.54052734 C65.01062012 -0.56762695 65.01062012 -0.56762695 67.7040863 -0.57266235 C69.57636582 -0.58184718 71.44861087 -0.60289093 73.32066345 -0.63345337 C76.16500015 -0.6775484 79.00717802 -0.68343097 81.85180664 -0.68115234 C82.67914086 -0.70274099 83.50647509 -0.72432964 84.35888004 -0.74657249 C89.88625236 -0.68752888 92.68669864 0.71212072 96.69270992 4.51613426 C99.07727326 7.22278055 99.11261007 9.11729503 99.0625 12.625 C99.05347656 13.44226562 99.04445313 14.25953125 99.03515625 15.1015625 C99.02355469 15.72804688 99.01195313 16.35453125 99 17 C99.556875 16.60167969 100.11375 16.20335938 100.6875 15.79296875 C101.8321875 14.99826172 101.8321875 14.99826172 103 14.1875 C103.7425 13.66542969 104.485 13.14335937 105.25 12.60546875 C111.73031217 8.82221832 117.40489575 7.5144845 124.875 7.6875 C125.65858887 7.69587891 126.44217773 7.70425781 127.24951172 7.71289062 C132.98410233 7.83154551 138.46092259 8.44126465 144 10 C144.33 9.01 144.66 8.02 145 7 C146.32 7 147.64 7 149 7 C149.11381955 13.76594019 148.88021369 20.28837062 148 27 C146.02 27.495 146.02 27.495 144 28 C143.49596232 26.70990357 142.99690074 25.41786211 142.5 24.125 C142.2215625 23.40570312 141.943125 22.68640625 141.65625 21.9453125 C141 20 141 20 141 18 C139.824375 17.5359375 139.824375 17.5359375 138.625 17.0625 C136 16 136 16 134 15 C134 14.34 134 13.68 134 13 C131.77027727 13.11465421 129.54121247 13.24214766 127.3125 13.375 C125.45044922 13.47941406 125.45044922 13.47941406 123.55078125 13.5859375 C117.65255474 14.27373949 112.8741801 16.39344065 109 21 C104.96073228 27.58711351 104.60351094 34.66225495 104.5 42.1875 C104.48146973 43.03062744 104.46293945 43.87375488 104.44384766 44.74243164 C104.52569919 52.92036254 107.50097275 58.96880882 113 65 C118.9917312 68.99448747 126.99471969 68.72209717 134 68 C136.68471639 66.93816916 138.60817089 65.66388112 141 64 C141.66 64 142.32 64 143 64 C143.33 63.01 143.66 62.02 144 61 C145.32 61.33 146.64 61.66 148 62 C147.70229263 65.18817529 147.46535118 66.59814703 144.99609375 68.73046875 C139.76031868 71.7120628 135.02780177 74.28446957 129 75 C128.11828125 75.10570313 127.2365625 75.21140625 126.328125 75.3203125 C116.38219956 75.92548786 106.72371079 72.30391101 99 66 C98.896875 66.88171875 98.79375 67.7634375 98.6875 68.671875 C96.77465879 77.93176539 88.83440822 86.75200746 82 93 C81.53867172 93.42904129 81.07734344 93.85808258 80.60203552 94.30012512 C73.66638249 99.66090706 65.3384314 98.62834269 57.03125 98.48828125 C55.56999668 98.48091811 54.10873012 98.47582444 52.64746094 98.47302246 C47.26477118 98.44694354 41.88236483 98.37713688 36.5 98.3125 C18.4325 98.1578125 18.4325 98.1578125 0 98 C0 65.66 0 33.32 0 0 Z " fill="#508722" transform="translate(0,0)"/>
<path d="M0 0 C2.64 0 5.28 0 8 0 C8 4.29 8 8.58 8 13 C9.41478638 12.97643433 9.41478638 12.97643433 10.8581543 12.95239258 C14.37123148 12.90113993 17.88390898 12.86359009 21.3972168 12.83520508 C22.91518438 12.82015647 24.43310876 12.79971262 25.95092773 12.77368164 C28.13796677 12.73712347 30.32442896 12.72023477 32.51171875 12.70703125 C33.82615967 12.6913208 35.14060059 12.67561035 36.49487305 12.65942383 C41.08580268 13.10550218 43.64582662 14.57174711 46.78515625 17.8828125 C48.98959503 21.72463186 48.61514146 25.71428914 48 30 C45.95859513 34.08280973 44.28808937 36.4419942 40 38 C37.36675429 38.14006626 34.8742956 38.1889934 32.25 38.125 C29.8575 38.08375 27.465 38.0425 25 38 C25 32.39 25 26.78 25 21 C19.39 21 13.78 21 8 21 C8 26.61 8 32.22 8 38 C2.72 38 -2.56 38 -8 38 C-8 43.61 -8 49.22 -8 55 C-2.72 55 2.56 55 8 55 C8 60.28 8 65.56 8 71 C13.61 71 19.22 71 25 71 C25 65.39 25 59.78 25 54 C27.59875 53.9175 30.1975 53.835 32.875 53.75 C39.91022761 53.4193329 45.69148763 52.29734868 52 49 C52.72058594 48.67128906 53.44117187 48.34257813 54.18359375 48.00390625 C56.49032529 46.72900301 57.03855017 45.40362458 58 43 C58.33 43 58.66 43 59 43 C60.05937993 53.5433526 60.05937993 53.5433526 57.6875 56.8046875 C54.71715679 58.93962168 51.8399014 60.05520641 48.375 61.25 C44.18051958 63.42491577 43.35067106 65.48338696 41.30078125 69.58984375 C36.49131676 78.50107375 28.37023779 84.56938415 18.75390625 87.49609375 C10.13449288 89.073263 -0.22869458 89.49649768 -8 85 C-8.73476563 84.58621094 -9.46953125 84.17242187 -10.2265625 83.74609375 C-19.61821021 77.98232334 -24.71379336 71.30742813 -28.1171875 60.79296875 C-30.42794026 50.86491153 -30.25812908 40.90753879 -25 32 C-20.13126754 24.4162332 -14.19991113 18.86364689 -6 15 C-4.02 14.67 -2.04 14.34 0 14 C0 9.38 0 4.76 0 0 Z " fill="#F3F4F2" transform="translate(40,0)"/>
<path d="M0 0 C13.2 0 26.4 0 40 0 C40 4.62 40 9.24 40 14 C38.535625 14.515625 37.07125 15.03125 35.5625 15.5625 C25.29067348 19.74087011 19.05200591 26.16188323 14 36 C9.79477816 46.48483164 11.27754973 57.58804651 15.38671875 67.83203125 C19.86316905 76.62234891 26.93149237 82.94324831 36.26171875 86.10546875 C47.80798019 88.86836726 59.31916186 87.70603734 69.4609375 81.4921875 C75.80089291 76.96364792 79.8215963 71.35018611 83.28515625 64.43359375 C85.47796718 61.32170034 87.63688728 60.29832883 91.0625 58.6875 C92.12597656 58.17574219 93.18945312 57.66398437 94.28515625 57.13671875 C97 56 97 56 99 56 C100.39582729 68.93078892 96.60074711 75.89471944 88.74609375 85.859375 C86.57577727 88.41091228 84.49240239 90.75999278 82 93 C81.53980469 93.42677536 81.07960938 93.85355072 80.60546875 94.29325867 C73.66881595 99.66100455 65.34247562 98.62841087 57.03125 98.48828125 C55.56999668 98.48091811 54.10873012 98.47582444 52.64746094 98.47302246 C47.26477118 98.44694354 41.88236483 98.37713688 36.5 98.3125 C18.4325 98.1578125 18.4325 98.1578125 0 98 C0 65.66 0 33.32 0 0 Z " fill="#363637" transform="translate(0,0)"/>
<path d="M0 0 C4.17677912 -0.10044978 8.35287985 -0.17219399 12.53051758 -0.21972656 C13.945356 -0.23958394 15.36011531 -0.26667966 16.7746582 -0.30175781 C28.38480036 -0.58201684 39.91389349 -0.09698606 49 8 C52.39490747 12.92675597 51.74902353 19.31423044 51 25 C48.57710923 30.90460388 43.45426405 34.86148132 38.01171875 37.9453125 C32.05976847 40.02965306 26.21820308 39.33917471 20 39 C20.33 45.6 20.66 52.2 21 59 C23.31 59.66 25.62 60.32 28 61 C27.67 61.99 27.34 62.98 27 64 C18.09 64 9.18 64 0 64 C0 62.68 0 61.36 0 60 C3.465 59.505 3.465 59.505 7 59 C7 41.51 7 24.02 7 6 C4.69 5.34 2.38 4.68 0 4 C0 2.68 0 1.36 0 0 Z " fill="#DC6C29" transform="translate(278,9)"/>
<path d="M0 0 C4.06808417 2.47115715 4.06808417 2.47115715 5.7265625 4.65625 C6.14306641 7.51953125 6.14306641 7.51953125 6.203125 10.96875 C6.2340625 12.20882812 6.265 13.44890625 6.296875 14.7265625 C6.31492188 16.02335937 6.33296875 17.32015625 6.3515625 18.65625 C6.40250837 21.21882712 6.45702511 23.78133648 6.515625 26.34375 C6.53318848 27.48199219 6.55075195 28.62023437 6.56884766 29.79296875 C6.60441232 32.72908778 6.60441232 32.72908778 7.7265625 35.65625 C12.77949817 37.57636555 16.13950758 37.65625 21.7265625 37.65625 C21.7265625 26.76625 21.7265625 15.87625 21.7265625 4.65625 C19.7465625 4.65625 17.7665625 4.65625 15.7265625 4.65625 C15.7265625 3.33625 15.7265625 2.01625 15.7265625 0.65625 C19.28701427 -0.53056726 22.16464587 -0.44064832 25.9140625 -0.40625 C27.18636719 -0.39722656 28.45867187 -0.38820313 29.76953125 -0.37890625 C31.23326172 -0.36150391 31.23326172 -0.36150391 32.7265625 -0.34375 C32.7265625 1.30625 32.7265625 2.95625 32.7265625 4.65625 C36.00429754 3.90474977 36.00429754 3.90474977 37.7265625 0.65625 C40.70481393 -1.2656131 42.96904578 -1.57191226 46.4765625 -1.46875 C47.27578125 -1.45070313 48.075 -1.43265625 48.8984375 -1.4140625 C49.50171875 -1.39085938 50.105 -1.36765625 50.7265625 -1.34375 C51.95733173 5.05625 51.95733173 5.05625 50.7890625 8.09375 C50.4384375 8.609375 50.0878125 9.125 49.7265625 9.65625 C43.8515625 8.78125 43.8515625 8.78125 42.7265625 7.65625 C40.31118412 7.23907721 40.31118412 7.23907721 37.7265625 7.65625 C34.78238101 10.67477951 34.35679321 12.86420608 34.3984375 17.0078125 C34.40617187 18.53148437 34.40617187 18.53148437 34.4140625 20.0859375 C34.4346875 21.14039062 34.4553125 22.19484375 34.4765625 23.28125 C34.48429687 24.87453125 34.48429687 24.87453125 34.4921875 26.5 C34.32182503 31.74583684 34.32182503 31.74583684 35.7265625 36.65625 C38.0406247 37.38700648 40.37485119 38.05763258 42.7265625 38.65625 C42.7265625 39.64625 42.7265625 40.63625 42.7265625 41.65625 C41.29606567 41.64839478 41.29606567 41.64839478 39.83666992 41.64038086 C36.29761697 41.62227735 32.75856812 41.61079839 29.21948242 41.60131836 C27.6878999 41.5962904 26.15632217 41.58946716 24.62475586 41.58081055 C22.42300228 41.56867771 20.22131217 41.56300633 18.01953125 41.55859375 C16.99281563 41.55085182 16.99281563 41.55085182 15.94535828 41.54295349 C12.91750008 41.5425964 10.62506108 41.69008381 7.7265625 42.65625 C5.7890625 42.82421875 5.7890625 42.82421875 3.7265625 42.84375 C2.705625 42.86501953 2.705625 42.86501953 1.6640625 42.88671875 C-0.2734375 42.65625 -0.2734375 42.65625 -3.2734375 40.65625 C-3.2734375 39.99625 -3.2734375 39.33625 -3.2734375 38.65625 C-7.34474243 39.91039589 -7.34474243 39.91039589 -11.1484375 41.78125 C-15.80291929 43.69780133 -20.09150856 43.09400146 -24.6484375 41.40625 C-27.47069406 39.52474563 -28.06379709 38.72394168 -29.2734375 35.65625 C-29.85253658 32.23176987 -29.86374613 29.08115383 -29.2734375 25.65625 C-24.61171773 19.34921737 -16.54427608 18.49879791 -9.2734375 16.65625 C-8.2834375 16.32625 -7.2934375 15.99625 -6.2734375 15.65625 C-6.180625 13.7690625 -6.180625 13.7690625 -6.0859375 11.84375 C-6.05113281 11.13605469 -6.01632813 10.42835937 -5.98046875 9.69921875 C-6.12398165 7.58461978 -6.12398165 7.58461978 -7.51171875 5.921875 C-10.30375918 3.91606325 -12.71522336 4.19299571 -16.0546875 4.28515625 C-19.23935527 4.81780315 -20.96535713 6.48393906 -23.2734375 8.65625 C-24.2634375 8.65625 -25.2534375 8.65625 -26.2734375 8.65625 C-26.7734375 6.46875 -26.7734375 6.46875 -26.2734375 3.65625 C-20.12208302 -3.43409629 -8.07085805 -3.31309686 0 0 Z " fill="#D88959" transform="translate(181.2734375,31.34375)"/>
<path d="M0 0 C1.77697266 -0.02513672 1.77697266 -0.02513672 3.58984375 -0.05078125 C10.79601843 0.70307054 16.30731153 5.06652373 21.0625 10.3125 C23.66357545 16.05654162 24.15609186 23.18558766 22.52734375 29.33203125 C19.73089238 36.34608141 15.71345752 40.21665055 8.98046875 43.359375 C2.27915642 45.54829094 -5.05692062 45.57406969 -11.5 42.5625 C-14.38716662 40.84118713 -16.82294286 38.95569642 -18.9375 36.3125 C-18.9375 35.6525 -18.9375 34.9925 -18.9375 34.3125 C-19.5975 34.3125 -20.2575 34.3125 -20.9375 34.3125 C-23.27151127 26.72696338 -24.80979012 18.35664667 -21.375 10.9375 C-14.87596724 3.93854165 -9.90752059 0.03227205 0 0 Z " fill="#D88553" transform="translate(350.9375,29.6875)"/>
<path d="M0 0 C1.13953125 -0.03738281 2.2790625 -0.07476563 3.453125 -0.11328125 C7.48485552 0.40740433 8.94844472 1.39984856 11.75 4.3125 C14.43271389 8.79794599 15.11199695 12.04206285 15.04296875 17.2421875 C15.0284668 19.17578125 15.0284668 19.17578125 15.01367188 21.1484375 C14.98861188 22.49479786 14.96321712 23.84115203 14.9375 25.1875 C14.92243504 26.55727705 14.90874982 27.92707002 14.89648438 29.296875 C14.86121379 32.63582358 14.81191896 35.97395675 14.75 39.3125 C16.4 39.3125 18.05 39.3125 19.75 39.3125 C20.245 41.2925 20.245 41.2925 20.75 43.3125 C13.16 43.3125 5.57 43.3125 -2.25 43.3125 C-2.25 41.9925 -2.25 40.6725 -2.25 39.3125 C-0.27 38.8175 -0.27 38.8175 1.75 38.3125 C1.75 28.4125 1.75 18.5125 1.75 8.3125 C-6.36115462 7.65699694 -6.36115462 7.65699694 -9.734375 9.51953125 C-15.51785289 16.36132597 -13.44195631 29.81310104 -13.25 38.3125 C-11.6 38.9725 -9.95 39.6325 -8.25 40.3125 C-8.25 41.3025 -8.25 42.2925 -8.25 43.3125 C-15.84 43.3125 -23.43 43.3125 -31.25 43.3125 C-31.25 41.9925 -31.25 40.6725 -31.25 39.3125 C-28.28 38.8175 -28.28 38.8175 -25.25 38.3125 C-25.25 28.0825 -25.25 17.8525 -25.25 7.3125 C-28.22 6.8175 -28.22 6.8175 -31.25 6.3125 C-31.25 4.9925 -31.25 3.6725 -31.25 2.3125 C-22.835 1.8175 -22.835 1.8175 -14.25 1.3125 C-14.25 2.6325 -14.25 3.9525 -14.25 5.3125 C-13.115625 4.673125 -11.98125 4.03375 -10.8125 3.375 C-10.17441406 3.01535156 -9.53632813 2.65570313 -8.87890625 2.28515625 C-5.56768157 0.30795014 -4.16449228 0.08870555 0 0 Z " fill="#DD6B26" transform="translate(435.25,29.6875)"/>
<path d="M0 0 C4.76483622 2.38241811 7.46401269 4.83916366 9.5 9.75 C9.73046875 12.29296875 9.73046875 12.29296875 9.6875 14.9375 C9.68105469 15.81792969 9.67460937 16.69835937 9.66796875 17.60546875 C9.5 19.75 9.5 19.75 8.5 20.75 C6.42737924 20.83767112 4.35179706 20.85695873 2.27734375 20.84765625 C1.01728516 20.84443359 -0.24277344 20.84121094 -1.54101562 20.83789062 C-2.88151109 20.82953403 -4.22200588 20.82106907 -5.5625 20.8125 C-6.90689942 20.8074866 -8.2513006 20.80292342 -9.59570312 20.79882812 C-12.89717941 20.78699488 -16.19856803 20.77050971 -19.5 20.75 C-18.84 24.71 -18.18 28.67 -17.5 32.75 C-16.51 33.08 -15.52 33.41 -14.5 33.75 C-14.5 34.41 -14.5 35.07 -14.5 35.75 C-9.25953369 37.4968221 -4.28863101 37.57552201 0.75 35.25 C1.6575 34.755 2.565 34.26 3.5 33.75 C6.375 33.5625 6.375 33.5625 8.5 33.75 C8.4375 35.5 8.4375 35.5 7.5 37.75 C-0.35826089 42.93941757 -7.13113514 43.36772735 -16.5 42.75 C-22.25441184 41.56082207 -25.0812219 38.24325121 -28.5 33.75 C-29.16 33.42 -29.82 33.09 -30.5 32.75 C-33.10277712 25.59236292 -32.38468255 15.71808521 -29.68359375 8.6875 C-27.45611404 5.04119658 -24.13277551 2.87667281 -20.5 0.75 C-19.87480469 0.37359375 -19.24960938 -0.0028125 -18.60546875 -0.390625 C-13.01167674 -2.67380541 -5.6266947 -1.93549836 0 0 Z " fill="#D8814D" transform="translate(264.5,31.25)"/>
<path d="M0 0 C1.32 0 2.64 0 4 0 C4.11381955 6.76594019 3.88021369 13.28837062 3 20 C1.68 20.33 0.36 20.66 -1 21 C-1.50403768 19.70990357 -2.00309926 18.41786211 -2.5 17.125 C-2.7784375 16.40570312 -3.056875 15.68640625 -3.34375 14.9453125 C-4 13 -4 13 -4 11 C-4.78375 10.690625 -5.5675 10.38125 -6.375 10.0625 C-9 9 -9 9 -11 8 C-11 7.34 -11 6.68 -11 6 C-13.22972273 6.11465421 -15.45878753 6.24214766 -17.6875 6.375 C-19.54955078 6.47941406 -19.54955078 6.47941406 -21.44921875 6.5859375 C-27.34744526 7.27373949 -32.1258199 9.39344065 -36 14 C-40.03926772 20.58711351 -40.39648906 27.66225495 -40.5 35.1875 C-40.51853027 36.03062744 -40.53706055 36.87375488 -40.55615234 37.74243164 C-40.47430081 45.92036254 -37.49902725 51.96880882 -32 58 C-26.0082688 61.99448747 -18.00528031 61.72209717 -11 61 C-8.31528361 59.93816916 -6.39182911 58.66388112 -4 57 C-3.34 57 -2.68 57 -2 57 C-1.67 56.01 -1.34 55.02 -1 54 C0.32 54.33 1.64 54.66 3 55 C2.70229263 58.18817529 2.46535118 59.59814703 -0.00390625 61.73046875 C-5.23968132 64.7120628 -9.97219823 67.28446957 -16 68 C-16.88171875 68.10570313 -17.7634375 68.21140625 -18.671875 68.3203125 C-28.13171786 68.8959114 -36.17037417 65.59154893 -44.14306641 60.6796875 C-47.12154961 57.98550338 -46.6932319 55.40996612 -46.90527344 51.55322266 C-46.9365332 50.38065918 -46.96779297 49.2080957 -47 48 C-47.01985962 47.3063031 -47.03971924 46.6126062 -47.06018066 45.89788818 C-47.18540492 41.01770103 -47.19857284 36.14574393 -47.14257812 31.2644043 C-47.13079851 29.53754538 -47.13717065 27.81047308 -47.16113281 26.08374023 C-47.34995834 11.79908897 -47.34995834 11.79908897 -44.20214844 7.60400391 C-41.84795899 5.96254608 -39.6981002 4.96146587 -37 4 C-36.319375 3.67580078 -35.63875 3.35160156 -34.9375 3.01757812 C-30.04519477 0.82193511 -25.42661318 0.56470904 -20.125 0.6875 C-18.9496167 0.70006836 -18.9496167 0.70006836 -17.75048828 0.71289062 C-12.01589767 0.83154551 -6.53907741 1.44126465 -1 3 C-0.67 2.01 -0.34 1.02 0 0 Z " fill="#C3793B" transform="translate(145,7)"/>
<path d="M0 0 C1.66611905 -0.042721 3.33382885 -0.04063832 5 0 C6 1 6 1 6.09765625 4.16015625 C6.08605469 5.44792969 6.07445312 6.73570313 6.0625 8.0625 C6.05347656 9.35285156 6.04445313 10.64320312 6.03515625 11.97265625 C6.02355469 12.97167969 6.01195312 13.97070312 6 15 C7.65 15 9.3 15 11 15 C11 28.86 11 42.72 11 57 C-1.08571245 57 -1.08571245 57 -4.76220703 53.33105469 C-7.66038657 47.87310238 -6.68778557 41.14264764 -6.4375 35.125 C-6.40235445 33.65892835 -6.37042108 32.19277597 -6.34179688 30.7265625 C-6.26499229 27.1493534 -6.14439131 23.57519226 -6 20 C-7.98 20 -9.96 20 -12 20 C-12.3125 17.6875 -12.3125 17.6875 -12 15 C-10.35443434 13.96564444 -8.6829392 12.97236487 -7 12 C-3.83563549 8.40413124 -1.51876597 4.55629791 0 0 Z " fill="#DD7434" transform="translate(467,17)"/>
<path d="M0 0 C0.79921875 0.01804687 1.5984375 0.03609375 2.421875 0.0546875 C3.02515625 0.07789062 3.6284375 0.10109375 4.25 0.125 C5.48076923 6.525 5.48076923 6.525 4.3125 9.5625 C3.7865625 10.3359375 3.7865625 10.3359375 3.25 11.125 C-2.625 10.25 -2.625 10.25 -3.75 9.125 C-6.16537838 8.70782721 -6.16537838 8.70782721 -8.75 9.125 C-11.69418149 12.14352951 -12.11976929 14.33295608 -12.078125 18.4765625 C-12.07296875 19.49234375 -12.0678125 20.508125 -12.0625 21.5546875 C-12.041875 22.60914062 -12.02125 23.66359375 -12 24.75 C-11.99484375 25.8121875 -11.9896875 26.874375 -11.984375 27.96875 C-12.15473747 33.21458684 -12.15473747 33.21458684 -10.75 38.125 C-8.77111039 38.85193904 -6.77045442 39.52316251 -4.75 40.125 C-4.75 40.785 -4.75 41.445 -4.75 42.125 C-11.68 42.125 -18.61 42.125 -25.75 42.125 C-25.75 41.465 -25.75 40.805 -25.75 40.125 C-25.09 40.125 -24.43 40.125 -23.75 40.125 C-24.08 28.905 -24.41 17.685 -24.75 6.125 C-26.73 6.125 -28.71 6.125 -30.75 6.125 C-30.75 4.805 -30.75 3.485 -30.75 2.125 C-27.18954823 0.93818274 -24.31191663 1.02810168 -20.5625 1.0625 C-19.29019531 1.07152344 -18.01789063 1.08054687 -16.70703125 1.08984375 C-15.24330078 1.10724609 -15.24330078 1.10724609 -13.75 1.125 C-13.75 2.775 -13.75 4.425 -13.75 6.125 C-10.47226496 5.37349977 -10.47226496 5.37349977 -8.75 2.125 C-5.77174857 0.2031369 -3.50751672 -0.10316226 0 0 Z " fill="#DC6D2A" transform="translate(227.75,29.875)"/>
<path d="M0 0 C3.59578831 1.89777716 5.2762198 4.3630132 7 8 C7.48928646 11.27665773 7.50973797 14.50402457 7.5 17.8125 C7.52835937 18.67681641 7.55671875 19.54113281 7.5859375 20.43164062 C7.6046288 26.623135 6.331684 31.39385669 2 36 C-1.82967879 37.2993553 -3.86246624 37.37035983 -7.6875 36.125 C-12.12526032 32.04705808 -13.74008338 27.52985508 -14.3515625 21.578125 C-14.53044039 14.00020712 -14.46606674 6.96121913 -9.25 1 C-5.99603515 -0.4462066 -3.51777324 -0.37690428 0 0 Z " fill="#F7F2EF" transform="translate(354,34)"/>
<path d="M0 0 C0 13.2 0 26.4 0 40 C1.98 40 3.96 40 6 40 C6 40.99 6 41.98 6 43 C-1.26 43 -8.52 43 -16 43 C-16 41.68 -16 40.36 -16 39 C-13.525 38.505 -13.525 38.505 -11 38 C-11 28.1 -11 18.2 -11 8 C-13.31 7.34 -15.62 6.68 -18 6 C-18 4.68 -18 3.36 -18 2 C-16.12612523 1.6603981 -14.25083303 1.32861309 -12.375 1 C-11.33085937 0.814375 -10.28671875 0.62875 -9.2109375 0.4375 C-6 0 -6 0 0 0 Z " fill="#DF6B26" transform="translate(394,30)"/>
<path d="M0 0 C4.65487794 0.04447336 7.22068956 1.24632036 10.8125 4.3125 C13.7527218 8.72283271 13.8637253 13.08020106 13.8125 18.3125 C12.77567087 23.42191923 10.11200974 26.44616018 5.8125 29.3125 C2.55946956 30.93901522 -0.57975602 30.42703156 -4.1875 30.3125 C-6.01784055 28.48215945 -5.31792797 25.58038008 -5.3203125 23.125 C-5.32160156 21.86945312 -5.32289063 20.61390625 -5.32421875 19.3203125 C-5.32212402 18.66321289 -5.3200293 18.00611328 -5.31787109 17.32910156 C-5.31252234 15.32088665 -5.31781691 13.31289541 -5.32421875 11.3046875 C-5.32292969 10.04914062 -5.32164062 8.79359375 -5.3203125 7.5 C-5.31862061 5.75783203 -5.31862061 5.75783203 -5.31689453 3.98046875 C-5.11381594 -0.20678185 -3.82938594 0.12187325 0 0 Z " fill="#F7F0EC" transform="translate(303.1875,13.6875)"/>
<path d="M0 0 C2.6640625 1.65625 2.6640625 1.65625 4.6640625 4.65625 C4.96704102 7.71899414 4.96704102 7.71899414 5.04296875 11.44140625 C5.05996323 12.09829941 5.0769577 12.75519257 5.09446716 13.43199158 C5.14752638 15.52748044 5.18786268 17.62295062 5.2265625 19.71875 C5.27051243 21.81801975 5.31722275 23.91713757 5.36936951 26.01622009 C5.41587583 27.91830672 5.45338922 29.82060684 5.49047852 31.72290039 C5.46705614 34.59023428 5.46705614 34.59023428 6.6640625 36.65625 C9.19139485 37.31180119 9.19139485 37.31180119 11.6640625 37.65625 C11.0040625 38.31625 10.3440625 38.97625 9.6640625 39.65625 C6.5390625 39.28125 6.5390625 39.28125 3.6640625 38.65625 C3.3340625 39.31625 3.0040625 39.97625 2.6640625 40.65625 C1.6740625 40.65625 0.6840625 40.65625 -0.3359375 40.65625 C-0.6659375 39.99625 -0.9959375 39.33625 -1.3359375 38.65625 C-2.97956884 37.93465576 -4.64644136 37.26273579 -6.3359375 36.65625 C-6.0059375 35.99625 -5.6759375 35.33625 -5.3359375 34.65625 C-4.6759375 34.65625 -4.0159375 34.65625 -3.3359375 34.65625 C-3.408125 33.48449219 -3.4803125 32.31273437 -3.5546875 31.10546875 C-4.06176177 22.6144604 -4.50465097 14.16690712 -4.3359375 5.65625 C-9.0351466 4.63863958 -13.54155493 3.98503644 -18.3359375 4.65625 C-21.18513803 6.53394142 -21.18513803 6.53394142 -23.3359375 8.65625 C-24.3259375 8.65625 -25.3159375 8.65625 -26.3359375 8.65625 C-26.8359375 6.46875 -26.8359375 6.46875 -26.3359375 3.65625 C-20.15329309 -3.47016257 -8.11525935 -3.26891009 0 0 Z " fill="#DD6B25" transform="translate(181.3359375,31.34375)"/>
<path d="M0 0 C1.32 0 2.64 0 4 0 C4.11381955 6.76594019 3.88021369 13.28837062 3 20 C1.68 20.33 0.36 20.66 -1 21 C-1.50403768 19.70990357 -2.00309926 18.41786211 -2.5 17.125 C-2.7784375 16.40570312 -3.056875 15.68640625 -3.34375 14.9453125 C-4 13 -4 13 -4 11 C-4.78375 10.690625 -5.5675 10.38125 -6.375 10.0625 C-9 9 -9 9 -11 8 C-11 7.34 -11 6.68 -11 6 C-13.22972273 6.11465421 -15.45878753 6.24214766 -17.6875 6.375 C-19.54955078 6.47941406 -19.54955078 6.47941406 -21.44921875 6.5859375 C-27.26492632 7.26411682 -32.25862808 9.34634835 -36 14 C-37.63933837 17.58132382 -38.87693435 21.22782066 -40 25 C-40.33 25 -40.66 25 -41 25 C-40.505 20.545 -40.505 20.545 -40 16 C-39.34 16 -38.68 16 -38 16 C-38.66 14.35 -39.32 12.7 -40 11 C-41.98 11 -43.96 11 -46 11 C-41.30142382 5.7141018 -35.94961471 2.50613563 -29 1 C-26.11297731 0.87805307 -23.26179066 0.81012941 -20.375 0.8125 C-19.57336426 0.81185547 -18.77172852 0.81121094 -17.94580078 0.81054688 C-12.11874147 0.86239533 -6.63136164 1.41529522 -1 3 C-0.67 2.01 -0.34 1.02 0 0 Z " fill="#D97336" transform="translate(145,7)"/>
<path d="M0 0 C9.24 0 18.48 0 28 0 C24.9408769 2.29434232 22.02036587 4.19081218 18.75 6.125 C10.76632206 11.17742102 5.2752379 17.62765912 1 26 C0.67 26 0.34 26 0 26 C0 17.42 0 8.84 0 0 Z " fill="#F3F3F3" transform="translate(0,0)"/>
<path d="M0 0 C4.57071603 2.22359158 6.09624818 4.32512073 8 9 C8.34057617 12.34326172 8.34057617 12.34326172 8.29296875 15.9296875 C8.28330078 17.21875 8.27363281 18.5078125 8.26367188 19.8359375 C8.23861188 21.18229786 8.21321712 22.52865203 8.1875 23.875 C8.17243504 25.24477705 8.15874982 26.61457002 8.14648438 27.984375 C8.11121379 31.32332358 8.06191896 34.66145675 8 38 C9.65 38 11.3 38 13 38 C13.33 39.32 13.66 40.64 14 42 C6.41 42 -1.18 42 -9 42 C-9 40.68 -9 39.36 -9 38 C-7.02 37.505 -7.02 37.505 -5 37 C-5 26.77 -5 16.54 -5 6 C-3.35 6 -1.7 6 0 6 C-0.33 15.57 -0.66 25.14 -1 35 C2.465 34.505 2.465 34.505 6 34 C6.02904864 30.08334892 6.04681517 26.1667256 6.0625 22.25 C6.07087891 21.13882813 6.07925781 20.02765625 6.08789062 18.8828125 C6.09111328 17.81289063 6.09433594 16.74296875 6.09765625 15.640625 C6.10289307 14.65610352 6.10812988 13.67158203 6.11352539 12.65722656 C6.01159103 10.27130486 5.68303357 8.27835419 5 6 C4.01 6 3.02 6 2 6 C2 5.34 2 4.68 2 4 C1.34 3.67 0.68 3.34 0 3 C0 2.01 0 1.02 0 0 Z " fill="#DA6C2A" transform="translate(442,31)"/>
<path d="M0 0 C3.96 0 7.92 0 12 0 C12.66 1.98 13.32 3.96 14 6 C14.99 6 15.98 6 17 6 C19.4376312 9.7383435 19.26904426 13.44505976 19.1875 17.75 C19.1781543 18.46430176 19.16880859 19.17860352 19.15917969 19.91455078 C18.98127638 29.91134844 18.98127638 29.91134844 18 34 C16.125 35.5625 16.125 35.5625 14 36 C13.01 35.67 12.02 35.34 11 35 C10.97108454 30.54168018 10.95323019 26.08338431 10.9375 21.625 C10.92912109 20.35398437 10.92074219 19.08296875 10.91210938 17.7734375 C10.90888672 16.56171875 10.90566406 15.35 10.90234375 14.1015625 C10.89710693 12.98088379 10.89187012 11.86020508 10.88647461 10.70556641 C11 8 11 8 12 6 C11.319375 6.061875 10.63875 6.12375 9.9375 6.1875 C6.08063875 5.94131737 3.48920406 4.64197838 0 3 C0 2.01 0 1.02 0 0 Z " fill="#DE6C26" transform="translate(430,31)"/>
<path d="M0 0 C0.66 0.33 1.32 0.66 2 1 C1.67 2.65 1.34 4.3 1 6 C0.01 6.33 -0.98 6.66 -2 7 C-1.979375 7.94875 -1.95875 8.8975 -1.9375 9.875 C-2 13 -2 13 -3 15 C-2.34 15 -1.68 15 -1 15 C-0.92652344 15.90492187 -0.92652344 15.90492187 -0.8515625 16.828125 C-0.77679688 17.62734375 -0.70203125 18.4265625 -0.625 19.25 C-0.55539063 20.03890625 -0.48578125 20.8278125 -0.4140625 21.640625 C-0.11458412 24.02082901 -0.11458412 24.02082901 1.0390625 26.046875 C2 28 2 28 2 32 C3.32 32.33 4.64 32.66 6 33 C6 33.99 6 34.98 6 36 C3.36 36.33 0.72 36.66 -2 37 C-7.57394049 28.51791665 -10.73032215 22.38127736 -9.64453125 11.96484375 C-8.7825918 7.99992228 -7.26124631 6.35113106 -4 4 C-3.236875 3.236875 -2.47375 2.47375 -1.6875 1.6875 C-1.130625 1.130625 -0.57375 0.57375 0 0 Z " fill="#E16A23" transform="translate(244,35)"/>
<path d="M0 0 C-0.33 0.99 -0.66 1.98 -1 3 C-1.845625 3.37125 -2.69125 3.7425 -3.5625 4.125 C-6.21682316 5.71828237 -6.21682316 5.71828237 -6.328125 8.19140625 C-6.31380464 10.47908447 -6.2148252 12.7228529 -6 15 C-2.66688525 16.7824918 0.24480943 17.48792856 4 18 C3 21 3 21 1.4375 22.1875 C-3.4893939 23.82979797 -7.61411378 23.51329119 -12.375 21.75 C-15.19659916 19.86893389 -15.80128616 19.0730664 -17 16 C-17.60978724 11.57549726 -17.80639868 7.46617942 -15.625 3.5 C-10.87234041 0.78419452 -5.43412302 0 0 0 Z " fill="#D7733D" transform="translate(169,51)"/>
<path d="M0 0 C0 12.87 0 25.74 0 39 C-0.66 38.67 -1.32 38.34 -2 38 C-2 26.45 -2 14.9 -2 3 C-6.29 3 -10.58 3 -15 3 C-15 3.66 -15 4.32 -15 5 C-14.01 5 -13.02 5 -12 5 C-12 5.66 -12 6.32 -12 7 C-11.34 7 -10.68 7 -10 7 C-9.10093281 10.844472 -8.87123709 14.41507158 -8.8671875 18.359375 C-8.86525391 20.15568359 -8.86525391 20.15568359 -8.86328125 21.98828125 C-8.86714844 23.22964844 -8.87101562 24.47101562 -8.875 25.75 C-8.87113281 27.00683594 -8.86726563 28.26367188 -8.86328125 29.55859375 C-8.86457031 30.75097656 -8.86585938 31.94335938 -8.8671875 33.171875 C-8.86831543 34.2659668 -8.86944336 35.36005859 -8.87060547 36.48730469 C-9 39 -9 39 -10 40 C-4.72 40 0.56 40 6 40 C6 40.99 6 41.98 6 43 C-1.26 43 -8.52 43 -16 43 C-16 41.68 -16 40.36 -16 39 C-13.525 38.505 -13.525 38.505 -11 38 C-11 28.1 -11 18.2 -11 8 C-13.31 7.34 -15.62 6.68 -18 6 C-18 4.68 -18 3.36 -18 2 C-16.12612523 1.6603981 -14.25083303 1.32861309 -12.375 1 C-11.33085937 0.814375 -10.28671875 0.62875 -9.2109375 0.4375 C-6 0 -6 0 0 0 Z " fill="#D58350" transform="translate(394,30)"/>
<path d="M0 0 C2.68252832 2.68252832 4.56353064 5.19763216 6.6875 8.3125 C9.79898437 12.65824478 12.7978032 15.826936 17.23828125 18.78125 C19 20 19 20 22 23 C14.74 23 7.48 23 0 23 C0 15.41 0 7.82 0 0 Z " fill="#F2F2F2" transform="translate(0,75)"/>
<path d="M0 0 C0.42410156 0.40992188 0.84820312 0.81984375 1.28515625 1.2421875 C7.96681423 7.38050187 14.16817834 8.44808047 23.1171875 8.3359375 C27.26269011 7.85285725 29.60354838 6.36274895 33 4 C33.66 4 34.32 4 35 4 C35.33 3.01 35.66 2.02 36 1 C37.32 1.33 38.64 1.66 40 2 C39.70229263 5.18817529 39.46535118 6.59814703 36.99609375 8.73046875 C27.39537117 14.19775046 17.58113737 17.27689688 6.453125 14.32421875 C4.60246866 13.63186327 2.79406089 12.8280281 1 12 C1 11.67 1 11.34 1 11 C3.64 11 6.28 11 9 11 C7.68 10.34 6.36 9.68 5 9 C5 8.34 5 7.68 5 7 C4.01 6.67 3.02 6.34 2 6 C0.8125 2.9375 0.8125 2.9375 0 0 Z " fill="#D56E33" transform="translate(108,60)"/>
<path d="M0 0 C0.99 0 1.98 0 3 0 C3 1.65 3 3.3 3 5 C3.639375 5.268125 4.27875 5.53625 4.9375 5.8125 C7 7 7 7 8 10 C8.51183926 16.59439425 7.72072846 22.63945017 6 29 C0.25 28.125 0.25 28.125 -2 27 C-1.8899083 23.58268208 -1.75932939 20.16644426 -1.625 16.75 C-1.5940625 15.78191406 -1.563125 14.81382813 -1.53125 13.81640625 C-1.49257813 12.88183594 -1.45390625 11.94726562 -1.4140625 10.984375 C-1.3826416 10.12553711 -1.3512207 9.26669922 -1.31884766 8.38183594 C-0.98283796 5.8717972 -0.25808272 4.18067672 1 2 C0.34 1.67 -0.32 1.34 -1 1 C-0.67 0.67 -0.34 0.34 0 0 Z M0 25 C1 27 1 27 1 27 Z " fill="#DE6B26" transform="translate(364,37)"/>
<path d="M0 0 C0.79921875 0.01804687 1.5984375 0.03609375 2.421875 0.0546875 C3.02515625 0.07789062 3.6284375 0.10109375 4.25 0.125 C5.48076923 6.525 5.48076923 6.525 4.3125 9.5625 C3.7865625 10.3359375 3.7865625 10.3359375 3.25 11.125 C-2.625 10.25 -2.625 10.25 -3.75 9.125 C-6.16537838 8.70782721 -6.16537838 8.70782721 -8.75 9.125 C-11.69418149 12.14352951 -12.11976929 14.33295608 -12.078125 18.4765625 C-12.07296875 19.49234375 -12.0678125 20.508125 -12.0625 21.5546875 C-12.041875 22.60914062 -12.02125 23.66359375 -12 24.75 C-11.99484375 25.8121875 -11.9896875 26.874375 -11.984375 27.96875 C-12.15473747 33.21458684 -12.15473747 33.21458684 -10.75 38.125 C-9.76 38.785 -8.77 39.445 -7.75 40.125 C-12.625 39.25 -12.625 39.25 -13.75 38.125 C-14.16422006 33.67906649 -14.26714159 29.21111888 -14.4375 24.75 C-14.49744141 23.491875 -14.55738281 22.23375 -14.61914062 20.9375 C-14.66619141 19.73351562 -14.71324219 18.52953125 -14.76171875 17.2890625 C-14.80772217 16.17998535 -14.85372559 15.0709082 -14.90112305 13.92822266 C-14.75 11.125 -14.75 11.125 -12.75 8.125 C-13.41 8.125 -14.07 8.125 -14.75 8.125 C-14.75 6.145 -14.75 4.165 -14.75 2.125 C-19.7 2.455 -24.65 2.785 -29.75 3.125 C-30.08 4.115 -30.41 5.105 -30.75 6.125 C-30.75 4.805 -30.75 3.485 -30.75 2.125 C-27.18954823 0.93818274 -24.31191663 1.02810168 -20.5625 1.0625 C-19.29019531 1.07152344 -18.01789063 1.08054687 -16.70703125 1.08984375 C-15.24330078 1.10724609 -15.24330078 1.10724609 -13.75 1.125 C-13.75 2.775 -13.75 4.425 -13.75 6.125 C-10.47226496 5.37349977 -10.47226496 5.37349977 -8.75 2.125 C-5.77174857 0.2031369 -3.50751672 -0.10316226 0 0 Z " fill="#DC834F" transform="translate(227.75,29.875)"/>
<path d="M0 0 C1.21171875 -0.01675781 2.4234375 -0.03351562 3.671875 -0.05078125 C10.93958377 0.68709748 16.45336122 5.02079529 21.25 10.3125 C24.16476535 16.74927347 24.11166681 24.1889578 22.25 30.9375 C21.92 31.72125 21.59 32.505 21.25 33.3125 C20.1875 31.4375 20.1875 31.4375 19.25 29.3125 C19.58 28.6525 19.91 27.9925 20.25 27.3125 C20.37148305 25.69084248 20.42543652 24.06365673 20.4375 22.4375 C20.45876953 21.14199219 20.45876953 21.14199219 20.48046875 19.8203125 C20.23522656 17.15174491 19.6864726 15.56045361 18.25 13.3125 C17.59 12.9825 16.93 12.6525 16.25 12.3125 C16.25 10.6625 16.25 9.0125 16.25 7.3125 C15.26 7.6425 14.27 7.9725 13.25 8.3125 C13.58 9.3025 13.91 10.2925 14.25 11.3125 C13.92 11.9725 13.59 12.6325 13.25 13.3125 C12.97300281 16.65405338 12.80299296 19.99535874 12.62890625 23.34375 C12.25 26.3125 12.25 26.3125 10.25 28.3125 C10.22421875 27.22710937 10.1984375 26.14171875 10.171875 25.0234375 C10.11556262 23.57808651 10.058216 22.13277556 10 20.6875 C9.98582031 19.97464844 9.97164063 19.26179688 9.95703125 18.52734375 C9.72354959 13.43744362 8.69288139 10.28878555 5.25 6.3125 C3.17789308 5.20033971 3.17789308 5.20033971 1 4.9375 C-0.2375 4.73125 -1.475 4.525 -2.75 4.3125 C-2.75 3.9825 -2.75 3.6525 -2.75 3.3125 C-1.1 3.3125 0.55 3.3125 2.25 3.3125 C2.25 2.6525 2.25 1.9925 2.25 1.3125 C-1.38 1.6425 -5.01 1.9725 -8.75 2.3125 C-5.91546061 -0.52203939 -3.95098712 0.01250312 0 0 Z " fill="#D67F49" transform="translate(350.75,29.6875)"/>
<path d="M0 0 C3.1850357 1.76015131 3.83296972 2.49890916 5 6 C5 8.31 5 10.62 5 13 C-0.61 13 -6.22 13 -12 13 C-13.2027972 6.98601399 -13.2027972 6.98601399 -11 3 C-7.70620884 -0.53777569 -4.67006574 -0.50036419 0 0 Z " fill="#F7F7F6" transform="translate(258,34)"/>
<path d="M0 0 C0.08107583 1.93681161 0.13922475 3.8745934 0.1875 5.8125 C0.22230469 6.89144531 0.25710937 7.97039063 0.29296875 9.08203125 C0 12 0 12 -1.2265625 13.8671875 C-3.47936998 15.30620549 -4.90365876 15.36944388 -7.5625 15.3125 C-8.34753906 15.30863281 -9.13257813 15.30476563 -9.94140625 15.30078125 C-12 15 -12 15 -14 13 C-14.61810228 9.9213752 -14.61252068 7.07901022 -14 4 C-9.65277051 -0.45591023 -5.85377147 -0.40370838 0 0 Z " fill="#F9F1EE" transform="translate(176,53)"/>
<path d="M0 0 C9.81600993 1.73223705 9.81600993 1.73223705 12.65625 4.7734375 C14.98990551 8.64025042 14.52270122 12.62405264 14 17 C13.21607505 19.54550342 12.23923876 21.62479237 11 24 C9.35 23.67 7.7 23.34 6 23 C5.90203125 21.92621094 5.8040625 20.85242188 5.703125 19.74609375 C5.55292514 18.30980755 5.40183586 16.87361417 5.25 15.4375 C5.188125 14.73302734 5.12625 14.02855469 5.0625 13.30273438 C4.47451943 7.98641005 2.90439755 4.492371 0 0 Z " fill="#DD6B26" transform="translate(314,16)"/>
<path d="M0 0 C0 6.6 0 13.2 0 20 C-1.65 20.33 -3.3 20.66 -5 21 C-5.33 20.01 -5.66 19.02 -6 18 C-6.66 18 -7.32 18 -8 18 C-8 16.35 -8 14.7 -8 13 C-8.66 13 -9.32 13 -10 13 C-10.30031949 3.99041534 -10.30031949 3.99041534 -8 1 C-4.72272522 -1.29409234 -4.12983575 -1.03245894 0 0 Z " fill="#DF6B26" transform="translate(339,45)"/>
<path d="M0 0 C0 0.66 0 1.32 0 2 C-0.886875 2.226875 -1.77375 2.45375 -2.6875 2.6875 C-7.26614806 4.50168131 -9.7196833 7.50629719 -12.875 11.1875 C-15.68574347 13.58489884 -18.44087527 14.17866352 -22 15 C-22.66 18.3 -23.32 21.6 -24 25 C-24.33 25 -24.66 25 -25 25 C-25.62090376 14.34115212 -25.62090376 14.34115212 -23.4375 9.625 C-15.86046512 1.46511628 -15.86046512 1.46511628 -10.5 0.125 C-6.99408542 -0.00021124 -3.50764963 -0.07158469 0 0 Z " fill="#DA6D2B" transform="translate(353,31)"/>
<path d="M0 0 C3.36156178 1.73171365 4.40173339 3.68165369 6.0625 7.0625 C6.0625 10.3625 6.0625 13.6625 6.0625 17.0625 C-1.1975 16.7325 -8.4575 16.4025 -15.9375 16.0625 C-15.9375 15.7325 -15.9375 15.4025 -15.9375 15.0625 C-10.4925 14.5675 -10.4925 14.5675 -4.9375 14.0625 C-4.999375 12.309375 -5.06125 10.55625 -5.125 8.75 C-5.30830992 3.55621883 -5.30830992 3.55621883 -3.546875 1.2109375 C-1.9375 0.0625 -1.9375 0.0625 0 0 Z " fill="#D96B2A" transform="translate(267.9375,33.9375)"/>
<path d="M0 0 C1.65 0 3.3 0 5 0 C5 10.56 5 21.12 5 32 C2.525 31.01 2.525 31.01 0 30 C0 20.1 0 10.2 0 0 Z " fill="#F7EBDF" transform="translate(473,37)"/>
<path d="M0 0 C2.53301531 0.04993399 3.86807975 0.11351112 6.125 1.3125 C7.73356522 4.42909511 7.54713381 6.81262469 7.125 10.25 C5.5 12.75 5.5 12.75 3.125 14.25 C-0.77545589 14.09079772 -2.60624169 13.42917221 -5.875 11.25 C-5.73457123 9.60369672 -5.58750671 7.95795821 -5.4375 6.3125 C-5.35628906 5.39597656 -5.27507812 4.47945312 -5.19140625 3.53515625 C-4.65660925 -0.3272665 -4.17173561 0.26914423 0 0 Z " fill="#D87F4C" transform="translate(386.875,7.75)"/>
<path d="M0 0 C6.27596135 -0.19232785 6.27596135 -0.19232785 9.734375 2.11328125 C9.734375 2.77328125 9.734375 3.43328125 9.734375 4.11328125 C8.63029297 4.06107422 8.63029297 4.06107422 7.50390625 4.0078125 C0.10958024 3.68364351 0.10958024 3.68364351 -6.265625 7.11328125 C-6.925625 6.45328125 -7.585625 5.79328125 -8.265625 5.11328125 C-8.6575 5.50515625 -9.049375 5.89703125 -9.453125 6.30078125 C-11.265625 8.11328125 -11.265625 8.11328125 -13.890625 9.98828125 C-17.6395982 14.92114073 -17.78572842 20.04072235 -17.265625 26.11328125 C-16.18904987 29.04523053 -14.93131697 31.5315318 -13.296875 34.1875 C-12.9565625 34.82300781 -12.61625 35.45851562 -12.265625 36.11328125 C-12.595625 36.77328125 -12.925625 37.43328125 -13.265625 38.11328125 C-17.65455247 34.06196359 -19.06081076 32.05551658 -19.46875 26.1953125 C-19.69104927 10.68993838 -19.69104927 10.68993838 -14.49609375 5.265625 C-9.75755146 1.43311374 -6.05238523 0.30261926 0 0 Z " fill="#D2783E" transform="translate(252.265625,30.88671875)"/>
<path d="M0 0 C0.33 0 0.66 0 1 0 C2.3855326 18.30882366 2.09694789 36.65298395 2 55 C-0.97 55 -3.94 55 -7 55 C-7 55.66 -7 56.32 -7 57 C0.92 57 8.84 57 17 57 C17 56.34 17 55.68 17 55 C15.515 54.505 15.515 54.505 14 54 C15.98 54.33 17.96 54.66 20 55 C19.67 55.99 19.34 56.98 19 58 C10.09 58 1.18 58 -8 58 C-8 56.68 -8 55.36 -8 54 C-4.535 53.505 -4.535 53.505 -1 53 C-0.67 35.51 -0.34 18.02 0 0 Z " fill="#DB8453" transform="translate(286,15)"/>
<path d="M0 0 C1.79244141 0.01740234 1.79244141 0.01740234 3.62109375 0.03515625 C5.41740234 0.04869141 5.41740234 0.04869141 7.25 0.0625 C8.17683594 0.07410156 9.10367187 0.08570312 10.05859375 0.09765625 C10.05859375 0.42765625 10.05859375 0.75765625 10.05859375 1.09765625 C6.09859375 1.09765625 2.13859375 1.09765625 -1.94140625 1.09765625 C-1.94140625 2.08765625 -1.94140625 3.07765625 -1.94140625 4.09765625 C-0.97203125 4.22140625 -0.00265625 4.34515625 0.99609375 4.47265625 C2.51203125 4.78203125 2.51203125 4.78203125 4.05859375 5.09765625 C4.38859375 5.75765625 4.71859375 6.41765625 5.05859375 7.09765625 C4.4553125 7.13503906 3.85203125 7.17242187 3.23046875 7.2109375 C2.43125 7.27667969 1.63203125 7.34242187 0.80859375 7.41015625 C0.0196875 7.46816406 -0.76921875 7.52617188 -1.58203125 7.5859375 C-4.44349496 8.20655297 -5.85680616 9.04512693 -7.94140625 11.09765625 C-10.98921252 19.31021797 -10.5268091 29.40202645 -10.94140625 38.09765625 C-11.27140625 38.09765625 -11.60140625 38.09765625 -11.94140625 38.09765625 C-11.93616943 37.46263184 -11.93093262 36.82760742 -11.92553711 36.17333984 C-11.90464369 33.2731222 -11.89170691 30.37292045 -11.87890625 27.47265625 C-11.87052734 26.47363281 -11.86214844 25.47460938 -11.85351562 24.4453125 C-11.83719395 19.51616521 -12.06282133 14.95915947 -12.94140625 10.09765625 C-12.8203125 7.54296875 -12.8203125 7.54296875 -12.50390625 5.22265625 C-12.40207031 4.44148438 -12.30023438 3.6603125 -12.1953125 2.85546875 C-12.11152344 2.27539062 -12.02773438 1.6953125 -11.94140625 1.09765625 C-11.61140625 2.41765625 -11.28140625 3.73765625 -10.94140625 5.09765625 C-9.80703125 4.45828125 -8.67265625 3.81890625 -7.50390625 3.16015625 C-6.86582031 2.80050781 -6.22773438 2.44085938 -5.5703125 2.0703125 C-2.226985 0.07393708 -2.226985 0.07393708 0 0 Z " fill="#DB834C" transform="translate(431.94140625,29.90234375)"/>
<path d="M0 0 C0.99 0 1.98 0 3 0 C3.50757862 1.41396902 4.00574925 2.83131729 4.5 4.25 C4.7784375 5.03890625 5.056875 5.8278125 5.34375 6.640625 C6 9 6 9 6 13 C7.32 13.33 8.64 13.66 10 14 C10 14.99 10 15.98 10 17 C6.04 17.495 6.04 17.495 2 18 C1.18071114 16.75443908 0.36984814 15.50333365 -0.4375 14.25 C-0.88996094 13.55390625 -1.34242188 12.8578125 -1.80859375 12.140625 C-2.9608009 10.07042986 -3.54676982 8.31303676 -4 6 C-3.01 5.67 -2.02 5.34 -1 5 C-0.67 3.35 -0.34 1.7 0 0 Z " fill="#DD702E" transform="translate(240,54)"/>
<path d="M0 0 C-0.0625 1.75 -0.0625 1.75 -1 4 C-7.05124415 7.99610463 -11.34041964 9.14144375 -18.625 9.125 C-19.77226562 9.12757812 -20.91953125 9.13015625 -22.1015625 9.1328125 C-25 9 -25 9 -27 8 C-27 7.34 -27 6.68 -27 6 C-25.68 6 -24.36 6 -23 6 C-23 5.01 -23 4.02 -23 3 C-22.20335937 3.03480469 -21.40671875 3.06960937 -20.5859375 3.10546875 C-13.09386234 3.29687213 -6.94598777 -0.61288127 0 0 Z " fill="#D77941" transform="translate(273,65)"/>
<path d="M0 0 C2.453125 1.53125 2.453125 1.53125 4 3 C2.02 3 0.04 3 -2 3 C-2.66 4.32 -3.32 5.64 -4 7 C-4.66 6.67 -5.32 6.34 -6 6 C-10.64660242 5.44313802 -13.95840619 5.275413 -17.875 8 C-18.57625 8.66 -19.2775 9.32 -20 10 C-20.99 10 -21.98 10 -23 10 C-23.5 7.8125 -23.5 7.8125 -23 5 C-17.32667931 -1.53934161 -7.89196027 -1.09105442 0 0 Z " fill="#D98453" transform="translate(178,30)"/>
<path d="M0 0 C0.66 0 1.32 0 2 0 C2.84473549 6.84839132 3.13251649 13.6689429 3.1875 20.5625 C3.20039063 21.36026855 3.21328125 22.15803711 3.2265625 22.97998047 C3.23001209 24.98807129 3.12330964 26.99569579 3 29 C2.34 29.66 1.68 30.32 1 31 C2.32 31.66 3.64 32.32 5 33 C5 33.66 5 34.32 5 35 C4.34 35 3.68 35 3 35 C3 34.34 3 33.68 3 33 C-0.63 32.67 -4.26 32.34 -8 32 C-8 31.67 -8 31.34 -8 31 C-6.2984375 30.5359375 -6.2984375 30.5359375 -4.5625 30.0625 C-1.21224901 29.37075469 -1.21224901 29.37075469 0 28 C0.23427778 25.98405418 0.41336124 23.961526 0.5625 21.9375 C0.64628906 20.83277344 0.73007813 19.72804688 0.81640625 18.58984375 C0.90728516 17.30787109 0.90728516 17.30787109 1 16 C-1.31 16 -3.62 16 -6 16 C-6 15.34 -6 14.68 -6 14 C-6.70125 14.33 -7.4025 14.66 -8.125 15 C-11.26003116 16.09044562 -13.70563182 16.15322643 -17 16 C-13.55144536 14.10500215 -10.01199615 13.00359885 -6.25 11.875 C-5.07953125 11.52179687 -3.9090625 11.16859375 -2.703125 10.8046875 C-1.81109375 10.53914063 -0.9190625 10.27359375 0 10 C0 6.7 0 3.4 0 0 Z " fill="#D87F4A" transform="translate(175,37)"/>
<path d="M0 0 C1.96875 1.4921875 1.96875 1.4921875 4 4 C4.34493228 6.8111981 4.51505746 9.31929381 4.5 12.125 C4.48551503 14.85300206 4.64033026 17.27250444 5 20 C6.89758548 21.58788915 6.89758548 21.58788915 9 22 C7.54261898 22.98058352 6.08406325 23.95942132 4.625 24.9375 C3.81289063 25.48277344 3.00078125 26.02804688 2.1640625 26.58984375 C-1.8148235 29.18258355 -4.35327681 29.1058793 -9.125 29.0625 C-10.40632813 29.05347656 -11.68765625 29.04445313 -13.0078125 29.03515625 C-14.48894531 29.01775391 -14.48894531 29.01775391 -16 29 C-16 28.67 -16 28.34 -16 28 C-15.04738281 27.87882812 -14.09476562 27.75765625 -13.11328125 27.6328125 C-11.85902344 27.46523438 -10.60476563 27.29765625 -9.3125 27.125 C-8.07113281 26.96257813 -6.82976562 26.80015625 -5.55078125 26.6328125 C-2.42204705 26.07521631 0.12148102 25.30991877 3 24 C2.67 23.01 2.34 22.02 2 21 C0.02 21.66 -1.96 22.32 -4 23 C-3.360625 22.21625 -2.72125 21.4325 -2.0625 20.625 C1.9945762 14.53938571 1.3476688 6.88808496 0 0 Z " fill="#DC8756" transform="translate(315,19)"/>
<path d="M0 0 C0.33 0 0.66 0 1 0 C1 12.21 1 24.42 1 37 C2.65 37 4.3 37 6 37 C6 36.34 6 35.68 6 35 C7.485 35.495 7.485 35.495 9 36 C8.67 36.99 8.34 37.98 8 39 C8.66 39 9.32 39 10 39 C10 39.66 10 40.32 10 41 C9.01 41 8.02 41 7 41 C6.67 41.99 6.34 42.98 6 44 C3.47909222 44.0272367 0.95848543 44.04695207 -1.5625 44.0625 C-2.26697266 44.07087891 -2.97144531 44.07925781 -3.69726562 44.08789062 C-8.24024798 44.10882603 -12.51784892 43.74800682 -17 43 C-16.67 41.68 -16.34 40.36 -16 39 C-16 39.99 -16 40.98 -16 42 C-8.74 42 -1.48 42 6 42 C6 41.01 6 40.02 6 39 C4.02 39 2.04 39 0 39 C0 26.13 0 13.26 0 0 Z " fill="#F8E0CE" transform="translate(394,31)"/>
<path d="M0 0 C1.32 0.33 2.64 0.66 4 1 C3.70423675 4.22053311 3.45141131 5.60912278 0.9609375 7.765625 C-4.10875742 10.67572178 -8.11773581 12.74424938 -14 13 C-13 11 -13 11 -10 10 C-11.35544922 9.92652344 -11.35544922 9.92652344 -12.73828125 9.8515625 C-13.91777344 9.77679688 -15.09726563 9.70203125 -16.3125 9.625 C-17.48425781 9.55539063 -18.65601562 9.48578125 -19.86328125 9.4140625 C-23 9 -23 9 -26 7 C-24.92621094 7.04640625 -23.85242188 7.0928125 -22.74609375 7.140625 C-12.21320209 7.59752002 -12.21320209 7.59752002 -3 3 C-2.34 3 -1.68 3 -1 3 C-0.67 2.01 -0.34 1.02 0 0 Z " fill="#D7773F" transform="translate(144,61)"/>
<path d="M0 0 C7.76470588 -0.25882353 7.76470588 -0.25882353 12 2 C15.16695956 2.16724737 15.16695956 2.16724737 18 2 C18 1.34 18 0.68 18 0 C22.43970742 1.39533662 24.90515679 3.56128532 28 7 C29.4241906 9.84838121 29.16995508 12.32787908 29.1875 15.5 C29.20167969 16.6653125 29.21585937 17.830625 29.23046875 19.03125 C29 22 29 22 27 24 C27.03480469 23.10796875 27.06960938 22.2159375 27.10546875 21.296875 C27.13253906 20.12640625 27.15960938 18.9559375 27.1875 17.75 C27.22230469 16.58984375 27.25710938 15.4296875 27.29296875 14.234375 C26.97337917 10.70610605 26.57379488 9.3931777 24 7 C21.74842467 6.09956172 21.74842467 6.09956172 19.3125 5.75 C18.50425781 5.60046875 17.69601562 5.4509375 16.86328125 5.296875 C16.24839844 5.19890625 15.63351562 5.1009375 15 5 C14.67 5.66 14.34 6.32 14 7 C13.175 6.360625 12.35 5.72125 11.5 5.0625 C7.76808594 2.53586919 4.44276697 2.30639772 0 2 C0 1.34 0 0.68 0 0 Z " fill="#D78049" transform="translate(300,12)"/>
<path d="M0 0 C1.65 0 3.3 0 5 0 C4.90638035 4.07549941 4.80026839 8.15046336 4.68261719 12.2253418 C4.6443565 13.61131907 4.60949844 14.99739465 4.578125 16.38354492 C4.53241301 18.3770164 4.47341075 20.37016914 4.4140625 22.36328125 C4.3826416 23.56251221 4.3512207 24.76174316 4.31884766 25.99731445 C4 29 4 29 2 32 C1.34 31.67 0.68 31.34 0 31 C0 20.77 0 10.54 0 0 Z " fill="#DC8551" transform="translate(437,37)"/>
<path d="M0 0 C4.26837643 -0.04982839 8.536594 -0.08592015 12.80517578 -0.10986328 C14.25409906 -0.11985586 15.70300251 -0.13345453 17.15185547 -0.15087891 C31.97156783 -0.32450751 31.97156783 -0.32450751 39 2 C35.52334905 3.06888524 32.32862522 3.11475767 28.703125 3.09765625 C27.49785156 3.09443359 26.29257812 3.09121094 25.05078125 3.08789062 C23.79652344 3.07951172 22.54226563 3.07113281 21.25 3.0625 C19.98027344 3.05798828 18.71054687 3.05347656 17.40234375 3.04882812 C14.26818164 3.03704556 11.13411459 3.02059416 8 3 C7.67 3.99 7.34 4.98 7 6 C4.69 5.34 2.38 4.68 0 4 C0 2.68 0 1.36 0 0 Z " fill="#D98459" transform="translate(278,9)"/>
<path d="M0 0 C0.33 0 0.66 0 1 0 C1 10.56 1 21.12 1 32 C0.34 32 -0.32 32 -1 32 C-1 32.66 -1 33.32 -1 34 C4.94 33.67 10.88 33.34 17 33 C17 33.99 17 34.98 17 36 C9.41 36 1.82 36 -6 36 C-6 34.68 -6 33.36 -6 32 C-4.02 31.67 -2.04 31.34 0 31 C0 20.77 0 10.54 0 0 Z " fill="#D78754" transform="translate(410,37)"/>
<path d="M0 0 C2.00720923 0.28674418 4.0085944 0.61866701 6 1 C6.09796875 1.61488281 6.1959375 2.22976562 6.296875 2.86328125 C7.13291046 7.99409305 7.13291046 7.99409305 10.125 12.0625 C10.74375 12.371875 11.3625 12.68125 12 13 C5.74831461 14.20224719 5.74831461 14.20224719 2.6875 13.375 C0.3495162 11.46997616 -0.20903518 9.90020435 -1 7 C-1.1875 3.75 -1.1875 3.75 -1 1 C-0.67 0.67 -0.34 0.34 0 0 Z " fill="#DE6B26" transform="translate(154,57)"/>
<path d="M0 0 C3.875 1.75 3.875 1.75 5 4 C5.28354633 8.94052564 5.31371247 13.88194001 5.35009766 18.82983398 C5.36664678 20.47971716 5.39392356 22.12952895 5.43212891 23.77905273 C5.48701149 26.16167258 5.5087871 28.54261372 5.5234375 30.92578125 C5.54610687 31.65928299 5.56877625 32.39278473 5.59213257 33.14851379 C5.57530584 37.24528765 5.14952472 38.82261416 2.46728516 42.00463867 C1.245979 42.99234253 1.245979 42.99234253 0 44 C-0.495 42.515 -0.495 42.515 -1 41 C-0.34 41 0.32 41 1 41 C2.22318866 37.33043403 2.23116124 33.87678997 2.31640625 30.05078125 C2.33718735 29.27816452 2.35796844 28.50554779 2.37937927 27.70951843 C2.44471038 25.2439352 2.50368315 22.77824639 2.5625 20.3125 C2.60570087 18.63996309 2.64931566 16.96743681 2.69335938 15.29492188 C2.8003749 11.1967225 2.90168857 7.09841704 3 3 C2.01 3.33 1.02 3.66 0 4 C0 2.68 0 1.36 0 0 Z " fill="#6B791E" transform="translate(94,4)"/>
<path d="M0 0 C0.33 0 0.66 0 1 0 C1.02886338 4.47915328 1.04675187 8.95828291 1.0625 13.4375 C1.07087891 14.71689453 1.07925781 15.99628906 1.08789062 17.31445312 C1.09111328 18.52939453 1.09433594 19.74433594 1.09765625 20.99609375 C1.10289307 22.12200928 1.10812988 23.2479248 1.11352539 24.40795898 C1 27 1 27 0 28 C5.28 28 10.56 28 16 28 C16 28.99 16 29.98 16 31 C8.74 31 1.48 31 -6 31 C-6 29.68 -6 28.36 -6 27 C-4.02 26.67 -2.04 26.34 0 26 C0 17.42 0 8.84 0 0 Z " fill="#D26C2E" transform="translate(384,42)"/>
<path d="M0 0 C7.13811563 0.36295503 7.13811563 0.36295503 10.875 3.125 C15.31895217 9.13740587 15.61769147 15.76588264 15 23 C14 26.625 14 26.625 13 29 C11.9375 27.125 11.9375 27.125 11 25 C11.33 24.34 11.66 23.68 12 23 C12.12148305 21.37834248 12.17543652 19.75115673 12.1875 18.125 C12.20876953 16.82949219 12.20876953 16.82949219 12.23046875 15.5078125 C11.98522656 12.83924491 11.4364726 11.24795361 10 9 C9.34 8.67 8.68 8.34 8 8 C8 6.35 8 4.7 8 3 C7.01 3.33 6.02 3.66 5 4 C5.33 4.99 5.66 5.98 6 7 C5.34 7.66 4.68 8.32 4 9 C3.67 7.35 3.34 5.7 3 4 C2.01 3.67 1.02 3.34 0 3 C0 2.01 0 1.02 0 0 Z " fill="#DC6D27" transform="translate(359,34)"/>
<path d="M0 0 C0 0.66 0 1.32 0 2 C-5.38490641 2.91657981 -10.54230189 3.11138159 -16 3 C-16 4.32 -16 5.64 -16 7 C-13.03 7.495 -13.03 7.495 -10 8 C-10 18.23 -10 28.46 -10 39 C-10.33 39 -10.66 39 -11 39 C-11.33 29.43 -11.66 19.86 -12 10 C-13.65 9.67 -15.3 9.34 -17 9 C-17 6.36 -17 3.72 -17 1 C-11.29309366 0.00749455 -5.78591511 -0.10477512 0 0 Z " fill="#F1CCB3" transform="translate(420,29)"/>
<path d="M0 0 C0.33 0 0.66 0 1 0 C1.03867187 0.92232422 1.03867187 0.92232422 1.078125 1.86328125 C1.2814648 6.99254591 1.2814648 6.99254591 4.0625 11.0625 C4.701875 11.371875 5.34125 11.68125 6 12 C4.73046875 13.49739583 3.4609375 14.99479167 2.19140625 16.4921875 C-0.25439261 19.58752639 -0.27420262 22.25357799 -0.5625 26.125 C-0.64628906 27.22070312 -0.73007812 28.31640625 -0.81640625 29.4453125 C-0.87699219 30.28835937 -0.93757813 31.13140625 -1 32 C-1.33 32 -1.66 32 -2 32 C-2 27.05 -2 22.1 -2 17 C-3.32 18.32 -4.64 19.64 -6 21 C-8.25 20.75 -8.25 20.75 -10 20 C-9.071875 19.278125 -8.14375 18.55625 -7.1875 17.8125 C-2.58191538 13.90209796 -0.94077495 10.71554349 -0.3125 4.6875 C-0.19623146 3.12585389 -0.08804127 1.5634915 0 0 Z " fill="#F9E4D5" transform="translate(329,24)"/>
<path d="M0 0 C1.27875 0.103125 2.5575 0.20625 3.875 0.3125 C4.95394531 0.39951172 4.95394531 0.39951172 6.0546875 0.48828125 C8 1 8 1 10 4 C10.22705078 7.00268555 10.22705078 7.00268555 10.1953125 10.63671875 C10.18564453 12.58481445 10.18564453 12.58481445 10.17578125 14.57226562 C10.1590706 15.94401307 10.14214071 17.31575786 10.125 18.6875 C10.11496674 20.07095718 10.10584149 21.45442127 10.09765625 22.83789062 C10.07404967 26.22543452 10.04112037 29.61263072 10 33 C9.67 33 9.34 33 9 33 C9 23.76 9 14.52 9 5 C6.69 5.33 4.38 5.66 2 6 C2 9.3 2 12.6 2 16 C1.67 16 1.34 16 1 16 C1 12.37 1 8.74 1 5 C0.34 5 -0.32 5 -1 5 C-0.67 3.35 -0.34 1.7 0 0 Z " fill="#D67337" transform="translate(176,32)"/>
<path d="M0 0 C5.61 0 11.22 0 17 0 C17 5.61 17 11.22 17 17 C16.34 16.67 15.68 16.34 15 16 C15 11.38 15 6.76 15 2 C10.38 2.33 5.76 2.66 1 3 C1 7.62 1 12.24 1 17 C0.67 17 0.34 17 0 17 C0 11.39 0 5.78 0 0 Z " fill="#729251" transform="translate(48,21)"/>
<path d="M0 0 C0.33 0 0.66 0 1 0 C1 1.98 1 3.96 1 6 C3.31 6.66 5.62 7.32 8 8 C2.24065421 13.95794393 2.24065421 13.95794393 -2.6875 14.125 C-4.3271875 14.063125 -4.3271875 14.063125 -6 14 C-5.65066406 13.32453125 -5.30132812 12.6490625 -4.94140625 11.953125 C-4.48636719 11.06109375 -4.03132813 10.1690625 -3.5625 9.25 C-3.11003906 8.36828125 -2.65757812 7.4865625 -2.19140625 6.578125 C-1.16544602 4.35801434 -0.48491397 2.38555381 0 0 Z " fill="#D97E46" transform="translate(361,58)"/>
<path d="M0 0 C1.32 0 2.64 0 4 0 C4.11381955 6.76594019 3.88021369 13.28837062 3 20 C1.68 20.33 0.36 20.66 -1 21 C-1.50403768 19.70990357 -2.00309926 18.41786211 -2.5 17.125 C-2.7784375 16.40570312 -3.056875 15.68640625 -3.34375 14.9453125 C-4 13 -4 13 -4 11 C-4.99 10.67 -5.98 10.34 -7 10 C-6.34 9.67 -5.68 9.34 -5 9 C-2.2027092 11.06756277 -1.97307727 12.14440371 -1.3125 15.6875 C-1.209375 16.780625 -1.10625 17.87375 -1 19 C-0.34 19 0.32 19 1 19 C1 13.72 1 8.44 1 3 C0.01 3.99 -0.98 4.98 -2 6 C-4.475 5.01 -4.475 5.01 -7 4 C-7 3.67 -7 3.34 -7 3 C-5.02 3 -3.04 3 -1 3 C-0.67 2.01 -0.34 1.02 0 0 Z " fill="#D99167" transform="translate(145,7)"/>
<path d="M0 0 C0.66 0 1.32 0 2 0 C2 0.66 2 1.32 2 2 C1.01 2.495 1.01 2.495 0 3 C-0.33 4.98 -0.66 6.96 -1 9 C3.29 9.33 7.58 9.66 12 10 C11.67 7.03 11.34 4.06 11 1 C11.66 1.33 12.32 1.66 13 2 C14 5 14 5 14 12 C8.39 12 2.78 12 -3 12 C-3.98507337 7.07463314 -4.13484079 6.15732153 -2 2 C-1.34 1.34 -0.68 0.68 0 0 Z " fill="#F6D5BF" transform="translate(249,35)"/>
<path d="M0 0 C3 3.75 3 3.75 3 6 C3.78375 6.2475 4.5675 6.495 5.375 6.75 C8.43639814 8.20780864 8.58706519 9.07993473 10 12 C12.02463255 12.65213292 12.02463255 12.65213292 14 13 C14.33 13.66 14.66 14.32 15 15 C12.03 14.67 9.06 14.34 6 14 C6 13.34 6 12.68 6 12 C5.4225 11.7525 4.845 11.505 4.25 11.25 C1.6997003 9.83316683 -0.01785701 8.12372463 -2 6 C-1.34 6 -0.68 6 0 6 C-0.2784375 4.7934375 -0.2784375 4.7934375 -0.5625 3.5625 C-0.706875 2.716875 -0.85125 1.87125 -1 1 C-0.67 0.67 -0.34 0.34 0 0 Z " fill="#DF6B24" transform="translate(103,57)"/>
<path d="M0 0 C0.66 0.33 1.32 0.66 2 1 C2.02526648 8.52969652 2.04283141 16.0593822 2.05493164 23.58911133 C2.0599737 26.15291757 2.06680714 28.71672091 2.07543945 31.28051758 C2.08751064 34.95655021 2.09322942 38.63254498 2.09765625 42.30859375 C2.10281754 43.46274277 2.10797882 44.61689178 2.11329651 45.80601501 C2.11337204 46.86703934 2.11344757 47.92806366 2.11352539 49.02124023 C2.115746 49.96055893 2.11796661 50.89987762 2.12025452 51.86766052 C2 54 2 54 1 55 C-0.99958364 55.04080783 -3.00045254 55.04254356 -5 55 C-4.67 54.34 -4.34 53.68 -4 53 C-2.68 53 -1.36 53 0 53 C0 35.51 0 18.02 0 0 Z " fill="#F8D7C4" transform="translate(284,14)"/>
<path d="M0 0 C0.99 0 1.98 0 3 0 C3.103125 0.928125 3.20625 1.85625 3.3125 2.8125 C3.67716911 5.94842911 3.67716911 5.94842911 5.4375 7.375 C8.02242411 10.06332107 8.23369517 13.40426194 9 17 C5.26360784 15.75453595 4.81243487 14.36595047 3 11 C3 12.65 3 14.3 3 16 C2.34 16 1.68 16 1 16 C0.08342019 10.61509359 -0.11138159 5.45769811 0 0 Z " fill="#DA6F33" transform="translate(100,47)"/>
<path d="M0 0 C-1 1 -1 1 -4.16015625 1.09765625 C-7.7734375 1.06510417 -11.38671875 1.03255208 -15 1 C-14.67 6.94 -14.34 12.88 -14 19 C-12.35 19.33 -10.7 19.66 -9 20 C-9 20.66 -9 21.32 -9 22 C-15.875 21.125 -15.875 21.125 -17 20 C-17.08669432 18.5112814 -17.10703494 17.018555 -17.09765625 15.52734375 C-17.09443359 14.62822266 -17.09121094 13.72910156 -17.08789062 12.80273438 C-17.07951172 11.85720703 -17.07113281 10.91167969 -17.0625 9.9375 C-17.05798828 8.98810547 -17.05347656 8.03871094 -17.04882812 7.06054688 C-17.0370011 4.70696935 -17.02052025 2.35351523 -17 0 C-14.54203147 -0.19436491 -12.08390706 -0.3807742 -9.625 -0.5625 C-8.92632812 -0.61857422 -8.22765625 -0.67464844 -7.5078125 -0.73242188 C-2.2265625 -1.11328125 -2.2265625 -1.11328125 0 0 Z " fill="#F5D9C7" transform="translate(315,48)"/>
<path d="M0 0 C0.66 0 1.32 0 2 0 C2.33 1.65 2.66 3.3 3 5 C3.33 4.34 3.66 3.68 4 3 C5.98 3 7.96 3 10 3 C9.59007812 3.42410156 9.18015625 3.84820312 8.7578125 4.28515625 C2.2117262 11.41068081 1.64377451 18.63138679 1 28 C0.67 28 0.34 28 0 28 C-0.02709444 25.91673869 -0.04643873 23.83337559 -0.0625 21.75 C-0.07410156 20.58984375 -0.08570313 19.4296875 -0.09765625 18.234375 C-0.01782092 15.59022872 0.21356222 13.50173909 1 11 C0.34 11 -0.32 11 -1 11 C-0.9278125 10.37351562 -0.855625 9.74703125 -0.78125 9.1015625 C-0.6884375 8.28429688 -0.595625 7.46703125 -0.5 6.625 C-0.4071875 5.81289063 -0.314375 5.00078125 -0.21875 4.1640625 C0.03352351 2.03087175 0.03352351 2.03087175 0 0 Z " fill="#F8DECB" transform="translate(232,30)"/>
<path d="M0 0 C1.2065625 0.0309375 1.2065625 0.0309375 2.4375 0.0625 C1.4475 0.5575 1.4475 0.5575 0.4375 1.0625 C1.0975 2.7125 1.7575 4.3625 2.4375 6.0625 C1.7775 6.0625 1.1175 6.0625 0.4375 6.0625 C0.40011719 6.66578125 0.36273438 7.2690625 0.32421875 7.890625 C0.25847656 8.68984375 0.19273438 9.4890625 0.125 10.3125 C0.06699219 11.10140625 0.00898437 11.8903125 -0.05078125 12.703125 C-0.6474853 15.45434062 -1.74913789 16.94285957 -3.5625 19.0625 C-3.58933987 16.08327407 -3.60926037 13.10428705 -3.625 10.125 C-3.63337891 9.27486328 -3.64175781 8.42472656 -3.65039062 7.54882812 C-3.65361328 6.73994141 -3.65683594 5.93105469 -3.66015625 5.09765625 C-3.66539307 4.3487915 -3.67062988 3.59992676 -3.67602539 2.82836914 C-3.49028527 -0.06078847 -2.89596652 0.07063333 0 0 Z " fill="#DA6C25" transform="translate(104.5625,16.9375)"/>
<path d="M0 0 C0.33 0 0.66 0 1 0 C1.05534912 0.64549805 1.11069824 1.29099609 1.16772461 1.95605469 C1.42098611 4.88766855 1.67919036 7.81882681 1.9375 10.75 C2.02451172 11.76578125 2.11152344 12.7815625 2.20117188 13.828125 C2.28818359 14.8078125 2.37519531 15.7875 2.46484375 16.796875 C2.543396 17.69760742 2.62194824 18.59833984 2.70288086 19.52636719 C3.09590464 22.82385686 3.09590464 22.82385686 4 26 C4.99 26.66 5.98 27.32 7 28 C6.67 29.32 6.34 30.64 6 32 C5.67 31.01 5.34 30.02 5 29 C3.35 28.67 1.7 28.34 0 28 C0 18.76 0 9.52 0 0 Z " fill="#F4D7C4" transform="translate(450,41)"/>
<path d="M0 0 C3.15811466 0.0553173 4.47098237 0.18575797 7.25 1.8125 C9.34492367 5.45584551 8.96519546 8.14706807 8.6875 12.3125 C6.56241756 9.12487635 6.1854837 7.04737777 5.6875 3.3125 C0.0193463 2.68335713 0.0193463 2.68335713 -5.24609375 4.42578125 C-7.06921183 5.93444745 -7.06921183 5.93444745 -9.3125 8.3125 C-10.6325 7.6525 -11.9525 6.9925 -13.3125 6.3125 C-13.3125 4.6625 -13.3125 3.0125 -13.3125 1.3125 C-12.9825 2.6325 -12.6525 3.9525 -12.3125 5.3125 C-11.178125 4.673125 -10.04375 4.03375 -8.875 3.375 C-8.23691406 3.01535156 -7.59882813 2.65570313 -6.94140625 2.28515625 C-3.28556124 0.10216966 -3.28556124 0.10216966 0 0 Z " fill="#F6D4C0" transform="translate(167.3125,34.6875)"/>
<path d="M0 0 C15.84 0.495 15.84 0.495 32 1 C32 1.66 32 2.32 32 3 C22.76 3 13.52 3 4 3 C4 2.34 4 1.68 4 1 C2.68 0.67 1.36 0.34 0 0 Z " fill="#FCE4D2" transform="translate(192,72)"/>
<path d="M0 0 C3 0.125 3 0.125 4 1.125 C4.14115161 3.79558851 4.04247107 6.44932238 4 9.125 C2.02 9.455 0.04 9.785 -2 10.125 C-1.67 8.475 -1.34 6.825 -1 5.125 C-1.99 4.795 -2.98 4.465 -4 4.125 C-4.33 4.785 -4.66 5.445 -5 6.125 C-3.93003229 0.16375135 -3.93003229 0.16375135 0 0 Z " fill="#DC6A23" transform="translate(388,9.875)"/>
<path d="M0 0 C-0.33 0.99 -0.66 1.98 -1 3 C-1.845625 3.37125 -2.69125 3.7425 -3.5625 4.125 C-6.19776205 5.71349851 -6.19776205 5.71349851 -6.36328125 8.12109375 C-6.42243562 12.71593423 -6.42243562 12.71593423 -5 17 C-5.99 16.67 -6.98 16.34 -8 16 C-8.33 13.03 -8.66 10.06 -9 7 C-9.99 6.67 -10.98 6.34 -12 6 C-11.67 4.68 -11.34 3.36 -11 2 C-3.375 0 -3.375 0 0 0 Z " fill="#D77337" transform="translate(169,51)"/>
<path d="M0 0 C4.32328804 -0.0744013 8.64623255 -0.12871968 12.9699707 -0.16479492 C14.43943782 -0.17984066 15.90886034 -0.20028238 17.37817383 -0.22631836 C19.4957177 -0.26288955 21.61266565 -0.27976801 23.73046875 -0.29296875 C25.63928833 -0.31653442 25.63928833 -0.31653442 27.58666992 -0.34057617 C32.11380919 0.11113395 34.67211352 1.6289068 37.80078125 4.859375 C39.28590752 7.51034957 39.3065986 9.23283543 39.1875 12.25 C39.14689453 13.58804687 39.14689453 13.58804687 39.10546875 14.953125 C39.07066406 15.62859375 39.03585938 16.3040625 39 17 C38.67 17 38.34 17 38 17 C38 14.03 38 11.06 38 8 C37.01 7.67 36.02 7.34 35 7 C34.25854736 6.16895752 33.51709473 5.33791504 32.75317383 4.48168945 C29.29255503 1.36231461 27.54914273 1.35169118 22.94921875 1.29296875 C22.29041214 1.27784744 21.63160553 1.26272614 20.95283508 1.24714661 C18.864038 1.20441434 16.7766898 1.19544735 14.6875 1.1875 C13.26493583 1.16434386 11.84240583 1.13897617 10.41992188 1.11132812 C6.94664196 1.04862384 3.47384387 1.01617216 0 1 C0 0.67 0 0.34 0 0 Z " fill="#DBEBD1" transform="translate(49,13)"/>
<path d="M0 0 C0.66 0 1.32 0 2 0 C2.06058594 0.60328125 2.12117187 1.2065625 2.18359375 1.828125 C2.26738281 2.62734375 2.35117188 3.4265625 2.4375 4.25 C2.55931641 5.43335938 2.55931641 5.43335938 2.68359375 6.640625 C2.97634993 8.82364639 3.42064419 10.8773182 4 13 C3.34 13 2.68 13 2 13 C1.67 12.34 1.34 11.68 1 11 C-2.37462715 11.54723683 -4.08235 12.0549 -7 14 C-9.1875 13.625 -9.1875 13.625 -11 13 C-10.43410156 12.68546875 -9.86820313 12.3709375 -9.28515625 12.046875 C-8.55167969 11.61890625 -7.81820312 11.1909375 -7.0625 10.75 C-6.33160156 10.33234375 -5.60070312 9.9146875 -4.84765625 9.484375 C-2.68142682 7.74406383 -2.36405249 6.70438996 -2 4 C-1.34 4 -0.68 4 0 4 C0 2.68 0 1.36 0 0 Z " fill="#F8DECC" transform="translate(150,58)"/>
<path d="M0 0 C0.58265625 0.2165625 1.1653125 0.433125 1.765625 0.65625 C12.03469647 4.14385918 21.57181519 3.583975 32 1 C31.67 1.99 31.34 2.98 31 4 C20.55806599 7.48064467 10.09213381 5.93422165 0 2 C0 1.34 0 0.68 0 0 Z " fill="#FCE6D5" transform="translate(107,71)"/>
<path d="M0 0 C4.56893594 2.22272559 6.08443526 4.33490199 8 9 C8.34057617 12.15966797 8.34057617 12.15966797 8.29296875 15.4921875 C8.28330078 16.69101562 8.27363281 17.88984375 8.26367188 19.125 C8.23853516 20.3625 8.21339844 21.6 8.1875 22.875 C8.17396484 24.13570312 8.16042969 25.39640625 8.14648438 26.6953125 C8.11123435 29.79731454 8.06195504 32.89843534 8 36 C7.67 36 7.34 36 7 36 C6.97494385 35.23333008 6.9498877 34.46666016 6.92407227 33.67675781 C6.80798577 30.20100717 6.68531634 26.72551908 6.5625 23.25 C6.52318359 22.0434375 6.48386719 20.836875 6.44335938 19.59375 C6.38051758 17.85351562 6.38051758 17.85351562 6.31640625 16.078125 C6.27974854 15.00981445 6.24309082 13.94150391 6.20532227 12.84082031 C6.03013091 10.41688848 5.68801513 8.32113288 5 6 C4.01 6 3.02 6 2 6 C2 5.34 2 4.68 2 4 C1.34 3.67 0.68 3.34 0 3 C0 2.01 0 1.02 0 0 Z " fill="#DA8957" transform="translate(442,31)"/>
<path d="M0 0 C1.11375 0.1546875 1.11375 0.1546875 2.25 0.3125 C2.58 0.9725 2.91 1.6325 3.25 2.3125 C2.486875 2.539375 1.72375 2.76625 0.9375 3 C-2.51690629 4.68703563 -3.16007876 5.80744635 -4.75 9.3125 C-5.24360076 12.57827919 -5.35140254 15.82623723 -5.4375 19.125 C-5.47166016 20.00865234 -5.50582031 20.89230469 -5.54101562 21.80273438 C-5.62310433 23.97222167 -5.68823879 26.1423389 -5.75 28.3125 C-6.08 28.3125 -6.41 28.3125 -6.75 28.3125 C-6.8664862 24.58359745 -6.93734576 20.85516486 -7 17.125 C-7.03351563 16.06990234 -7.06703125 15.01480469 -7.1015625 13.92773438 C-7.20035149 6.09870684 -7.20035149 6.09870684 -4.90625 2.09375 C-2.75 0.3125 -2.75 0.3125 0 0 Z " fill="#FADDCA" transform="translate(221.75,37.6875)"/>
<path d="M0 0 C0.33 0 0.66 0 1 0 C1.08082094 1.95766281 1.13910778 3.91626728 1.1875 5.875 C1.22230469 6.96554688 1.25710937 8.05609375 1.29296875 9.1796875 C1.19628906 10.11039063 1.09960938 11.04109375 1 12 C0.01 12.66 -0.98 13.32 -2 14 C-2.33 13.01 -2.66 12.02 -3 11 C-2.34 11 -1.68 11 -1 11 C-1.33 9.68 -1.66 8.36 -2 7 C-2.5775 7.350625 -3.155 7.70125 -3.75 8.0625 C-6.35801776 9.14917407 -7.39417629 8.93065133 -10 8 C-4.25 4 -4.25 4 -2 4 C-1.34 2.68 -0.68 1.36 0 0 Z " fill="#F1E6D4" transform="translate(98,43)"/>
<path d="M0 0 C4.875 1.75 4.875 1.75 6 4 C6.12413998 6.67911399 6.18515807 9.32083099 6.1875 12 C6.19974609 12.73734375 6.21199219 13.4746875 6.22460938 14.234375 C6.22987395 16.15770058 6.12203447 18.08054263 6 20 C5.34 20.66 4.68 21.32 4 22 C3.96261719 20.90300781 3.92523438 19.80601563 3.88671875 18.67578125 C3.82103347 17.22132143 3.75458701 15.76689584 3.6875 14.3125 C3.65366211 13.2306543 3.65366211 13.2306543 3.61914062 12.12695312 C3.39190237 7.60284595 2.70190564 4.78846287 0 1 C0 0.67 0 0.34 0 0 Z " fill="#D98554" transform="translate(357,36)"/>
<path d="M0 0 C0.33 0 0.66 0 1 0 C1.33 7.26 1.66 14.52 2 22 C1.34 21.67 0.68 21.34 0 21 C0 19.02 0 17.04 0 15 C-0.99 15 -1.98 15 -3 15 C-3.042721 13.33388095 -3.04063832 11.66617115 -3 10 C-2.67 9.67 -2.34 9.34 -2 9 C-1.66073053 6.66752239 -1.32759934 4.33414529 -1 2 C-0.67 1.34 -0.34 0.68 0 0 Z " fill="#D67B42" transform="translate(103,32)"/>
<path d="M0 0 C2.97 0 5.94 0 9 0 C10.23076923 6.4 10.23076923 6.4 9.0625 9.4375 C8.711875 9.953125 8.36125 10.46875 8 11 C5.125 10.6875 5.125 10.6875 2 10 C1.34 9.01 0.68 8.02 0 7 C1.175625 7.0309375 1.175625 7.0309375 2.375 7.0625 C4.98114961 7.18684063 4.98114961 7.18684063 7 6 C7 4.35 7 2.7 7 1 C4.69 1 2.38 1 0 1 C0 0.67 0 0.34 0 0 Z " fill="#D48150" transform="translate(223,30)"/>
<path d="M0 0 C0 0.99 0 1.98 0 3 C0.99 3.33 1.98 3.66 3 4 C-3.4 7.07692308 -3.4 7.07692308 -6.4375 6.6875 C-6.953125 6.460625 -7.46875 6.23375 -8 6 C-6.68 5.34 -5.36 4.68 -4 4 C-5.35544922 3.92652344 -5.35544922 3.92652344 -6.73828125 3.8515625 C-8.50751953 3.73941406 -8.50751953 3.73941406 -10.3125 3.625 C-11.48425781 3.55539063 -12.65601562 3.48578125 -13.86328125 3.4140625 C-17 3 -17 3 -20 1 C-18.86820312 1.01160156 -17.73640625 1.02320312 -16.5703125 1.03515625 C-15.08854331 1.04453454 -13.60677235 1.0536347 -12.125 1.0625 C-11.37863281 1.07087891 -10.63226563 1.07925781 -9.86328125 1.08789062 C-6.34310594 1.10374727 -3.29701538 0 0 0 Z " fill="#DF9060" transform="translate(138,67)"/>
<path d="M0 0 C4.29 0 8.58 0 13 0 C13 0.33 13 0.66 13 1 C9.04 1 5.08 1 1 1 C1 1.99 1 2.98 1 4 C2.4540625 4.185625 2.4540625 4.185625 3.9375 4.375 C5.4534375 4.684375 5.4534375 4.684375 7 5 C7.33 5.66 7.66 6.32 8 7 C7.32453125 6.98839844 6.6490625 6.97679687 5.953125 6.96484375 C5.06109375 6.95582031 4.1690625 6.94679688 3.25 6.9375 C2.36828125 6.92589844 1.4865625 6.91429687 0.578125 6.90234375 C-1.7818838 6.99173802 -3.74498524 7.33087179 -6 8 C-6 7.34 -6 6.68 -6 6 C-5.38125 5.7525 -4.7625 5.505 -4.125 5.25 C-1.54131114 3.98960746 -1.54131114 3.98960746 0 0 Z " fill="#D78448" transform="translate(429,30)"/>
<path d="M0 0 C0 0.66 0 1.32 0 2 C0.99 2.33 1.98 2.66 3 3 C2.01 3.495 2.01 3.495 1 4 C0.34 3.67 -0.32 3.34 -1 3 C-1 2.34 -1 1.68 -1 1 C-1.99 1 -2.98 1 -4 1 C-4 1.66 -4 2.32 -4 3 C-7.70416126 5.37590142 -10.92984573 5.20500286 -15.25 5.125 C-16.51328125 5.10695313 -17.7765625 5.08890625 -19.078125 5.0703125 C-20.04234375 5.04710938 -21.0065625 5.02390625 -22 5 C-22.33 3.68 -22.66 2.36 -23 1 C-22.01 1.495 -22.01 1.495 -21 2 C-17.23189116 3.25603628 -13.9376117 3.55335073 -10 3 C-4.00928793 -0.34365325 -4.00928793 -0.34365325 0 0 Z " fill="#FBE0CD" transform="translate(178,70)"/>
<path d="M0 0 C1.32 0.33 2.64 0.66 4 1 C3.01 1 2.02 1 1 1 C1 1.66 1 2.32 1 3 C6.61 3 12.22 3 18 3 C18 2.01 18 1.02 18 0 C20.475 0.495 20.475 0.495 23 1 C23 1.99 23 2.98 23 4 C15.41 4 7.82 4 0 4 C0 2.68 0 1.36 0 0 Z " fill="#D78B61" transform="translate(433,69)"/>
<path d="M0 0 C2.5 0.125 2.5 0.125 3.5 1.125 C3.57244053 3.14464199 3.58377188 5.16667124 3.5625 7.1875 C3.55347656 8.29222656 3.54445313 9.39695312 3.53515625 10.53515625 C3.52355469 11.38980469 3.51195312 12.24445312 3.5 13.125 C1.10236815 10.72736815 1.15719414 9.79226502 0.875 6.5 C0.80023438 5.68273437 0.72546875 4.86546875 0.6484375 4.0234375 C0.57496094 3.08371094 0.57496094 3.08371094 0.5 2.125 C-0.49 2.125 -1.48 2.125 -2.5 2.125 C-2.5 3.775 -2.5 5.425 -2.5 7.125 C-3.49 7.455 -4.48 7.785 -5.5 8.125 C-3.32949309 0.16647465 -3.32949309 0.16647465 0 0 Z " fill="#DB8858" transform="translate(469.5,16.875)"/>
<path d="M0 0 C2.95409701 1.37154504 5.44008376 2.98863724 8 5 C5.03 4.505 5.03 4.505 2 4 C1.67 4.99 1.34 5.98 1 7 C-1.18997776 9.9929696 -2.89376885 11.92917923 -6 14 C-4.99714388 11.30000274 -3.94037507 8.90221511 -2.4375 6.4375 C-1.12887975 4.21853522 -0.46467564 2.50924843 0 0 Z " fill="#DEDEDD" transform="translate(99,66)"/>
<path d="M0 0 C2 1 2 1 3.125 3.9375 C4.87866356 10.70163088 4.72250633 17.53404746 2 24 C0.9375 22.125 0.9375 22.125 0 20 C0.33 19.34 0.66 18.68 1 18 C1.38350035 11.93167094 0.88877447 5.99922766 0 0 Z " fill="#DB8A5B" transform="translate(370,39)"/>
<path d="M0 0 C0.82514784 2.83384108 1.07936233 5.16935251 0.87890625 8.109375 C0.83056641 8.86347656 0.78222656 9.61757813 0.73242188 10.39453125 C0.64831055 11.56048828 0.64831055 11.56048828 0.5625 12.75 C0.51029297 13.54277344 0.45808594 14.33554687 0.40429688 15.15234375 C0.27510676 17.10193997 0.13830035 19.05102886 0 21 C0.99 21.33 1.98 21.66 3 22 C-0.13349732 23.04449911 -0.98968256 22.93423645 -4 22 C-3.67 20.68 -3.34 19.36 -3 18 C-2.34 18.33 -1.68 18.66 -1 19 C-1.14308594 17.44539063 -1.14308594 17.44539063 -1.2890625 15.859375 C-1.40164406 14.48963271 -1.51358988 13.11983807 -1.625 11.75 C-1.72167969 10.72712891 -1.72167969 10.72712891 -1.8203125 9.68359375 C-2.11594735 5.8772951 -2.17561392 3.22190154 0 0 Z " fill="#D77133" transform="translate(420,47)"/>
<path d="M0 0 C6.31021898 -0.36405109 6.31021898 -0.36405109 9.25 1.1875 C12.66165661 4.72100149 14.17879112 7.38327581 14.1875 12.3125 C14.125625 13.529375 14.06375 14.74625 14 16 C13.67 16 13.34 16 13 16 C12.67 13.36 12.34 10.72 12 8 C11.195625 7.773125 10.39125 7.54625 9.5625 7.3125 C8.716875 6.879375 7.87125 6.44625 7 6 C6.1875 3.375 6.1875 3.375 6 1 C4.02 1 2.04 1 0 1 C0 0.67 0 0.34 0 0 Z " fill="#F9DDCE" transform="translate(347,34)"/>
<path d="M0 0 C0.76441406 -0.01417969 1.52882813 -0.02835938 2.31640625 -0.04296875 C4.4375 0.1875 4.4375 0.1875 7.4375 2.1875 C7.4375 2.8475 7.4375 3.5075 7.4375 4.1875 C2.1575 3.8575 -3.1225 3.5275 -8.5625 3.1875 C-8.5625 2.5275 -8.5625 1.8675 -8.5625 1.1875 C-5.6548543 0.35958266 -3.02159481 0.02556341 0 0 Z " fill="#D67136" transform="translate(254.5625,30.8125)"/>
<path d="M0 0 C7.32215357 -0.36010591 7.32215357 -0.36010591 10 1.0625 C11.52690415 4.02087678 11.18468872 6.73716599 11 10 C10.01 10.495 10.01 10.495 9 11 C8.67 8.36 8.34 5.72 8 3 C6.02 3 4.04 3 2 3 C1.67 3.66 1.34 4.32 1 5 C0.34 5 -0.32 5 -1 5 C-0.67 3.35 -0.34 1.7 0 0 Z " fill="#D1885D" transform="translate(383,8)"/>
<path d="M0 0 C0.99 0.495 0.99 0.495 2 1 C1.67 1.66 1.34 2.32 1 3 C8.92 3 16.84 3 25 3 C25 2.34 25 1.68 25 1 C24.01 0.67 23.02 0.34 22 0 C24.97 0.495 24.97 0.495 28 1 C27.67 1.99 27.34 2.98 27 4 C18.09 4 9.18 4 0 4 C0 2.68 0 1.36 0 0 Z " fill="#D79772" transform="translate(278,69)"/>
<path d="M0 0 C2.97 0.33 5.94 0.66 9 1 C8 4 8 4 6.4375 5.1875 C2.80797097 6.39734301 -0.17337662 6.24687893 -4 6 C-4.66 5.34 -5.32 4.68 -6 4 C-3.36 4 -0.72 4 2 4 C1.34 3.34 0.68 2.68 0 2 C0 1.34 0 0.68 0 0 Z " fill="#D97941" transform="translate(164,68)"/>
<path d="M0 0 C0.33 0 0.66 0 1 0 C1 5.28 1 10.56 1 16 C-3.95 16 -8.9 16 -14 16 C-14 14.35 -14 12.7 -14 11 C-13.34 11 -12.68 11 -12 11 C-11.67 12.32 -11.34 13.64 -11 15 C-7.37 15 -3.74 15 0 15 C0 10.05 0 5.1 0 0 Z " fill="#538029" transform="translate(63,54)"/>
<path d="M0 0 C0.66 1.32 1.32 2.64 2 4 C-3.57468542 7.61601216 -8.60567654 7.30720059 -15 7 C-15 6.67 -15 6.34 -15 6 C-10.545 5.505 -10.545 5.505 -6 5 C-6 4.34 -6 3.68 -6 3 C-4.02 2.01 -2.04 1.02 0 0 Z " fill="#DA6C2B" transform="translate(317,39)"/>
<path d="M0 0 C0.99 0 1.98 0 3 0 C3 0.66 3 1.32 3 2 C3.639375 2.309375 4.27875 2.61875 4.9375 2.9375 C7 4 7 4 8 5 C10.32817964 5.36760731 12.6618385 5.70241581 15 6 C15 6.33 15 6.66 15 7 C13.58344207 7.0272415 12.16672955 7.04650467 10.75 7.0625 C9.56664062 7.07990234 9.56664062 7.07990234 8.359375 7.09765625 C6.09308998 7.00385306 4.1711105 6.63241063 2 6 C2 5.34 2 4.68 2 4 C1.01 3.67 0.02 3.34 -1 3 C-0.67 2.01 -0.34 1.02 0 0 Z " fill="#D27330" transform="translate(339,66)"/>
<path d="M0 0 C0.625 2.5625 0.625 2.5625 1 5 C0.01 5.495 0.01 5.495 -1 6 C-1 5.34 -1 4.68 -1 4 C-1.66 4 -2.32 4 -3 4 C-3 5.32 -3 6.64 -3 8 C-3.99 7.67 -4.98 7.34 -6 7 C-6 4.69 -6 2.38 -6 0 C-2.25 -1.125 -2.25 -1.125 0 0 Z " fill="#E26921" transform="translate(271,40)"/>
<path d="M0 0 C0.33 1.32 0.66 2.64 1 4 C1.78375 3.505 2.5675 3.01 3.375 2.5 C6 1 6 1 8 1 C7.67 1.99 7.34 2.98 7 4 C4.9375 4.6875 4.9375 4.6875 3 5 C3 5.66 3 6.32 3 7 C3.495 6.67 3.99 6.34 4.5 6 C8.09090894 4.56363642 11.14456127 4.87148538 15 5 C15 5.33 15 5.66 15 6 C13.9275 6.12375 12.855 6.2475 11.75 6.375 C8.14766467 6.76590376 8.14766467 6.76590376 5.8125 8.1875 C5.214375 8.455625 4.61625 8.72375 4 9 C1.75 8.125 1.75 8.125 0 7 C0 4.69 0 2.38 0 0 Z " fill="#E89F6E" transform="translate(420,31)"/>
<path d="M0 0 C3.63 0 7.26 0 11 0 C10.01 0.33 9.02 0.66 8 1 C8 1.66 8 2.32 8 3 C6.21128822 3.38885039 4.41887126 3.76069196 2.625 4.125 C1.62726563 4.33382812 0.62953125 4.54265625 -0.3984375 4.7578125 C-1.25695312 4.83773437 -2.11546875 4.91765625 -3 5 C-3.66 4.34 -4.32 3.68 -5 3 C-3.68 3 -2.36 3 -1 3 C-0.67 2.01 -0.34 1.02 0 0 Z " fill="#D96B2D" transform="translate(164,31)"/>
<path d="M0 0 C0.66 0.33 1.32 0.66 2 1 C1.01 2.485 1.01 2.485 0 4 C5.94 4 11.88 4 18 4 C18.33 3.34 18.66 2.68 19 2 C19 2.99 19 3.98 19 5 C11.74 5 4.48 5 -3 5 C-3 3.68 -3 2.36 -3 1 C-2.01 0.67 -1.02 0.34 0 0 Z " fill="#D8956B" transform="translate(381,68)"/>
<path d="M0 0 C0.33 0 0.66 0 1 0 C1.02694851 1.95825873 1.04637218 3.91662226 1.0625 5.875 C1.07410156 6.96554688 1.08570313 8.05609375 1.09765625 9.1796875 C1 12 1 12 0 14 C1.32 14.66 2.64 15.32 4 16 C4 16.66 4 17.32 4 18 C3.34 18 2.68 18 2 18 C2 17.34 2 16.68 2 16 C-1.63 15.67 -5.26 15.34 -9 15 C-9 14.67 -9 14.34 -9 14 C-7.865625 13.690625 -6.73125 13.38125 -5.5625 13.0625 C-2.21224901 12.37075469 -2.21224901 12.37075469 -1 11 C-0.76636119 9.15108054 -0.58696365 7.29511969 -0.4375 5.4375 C-0.35371094 4.42558594 -0.26992187 3.41367187 -0.18359375 2.37109375 C-0.12300781 1.58863281 -0.06242188 0.80617187 0 0 Z " fill="#DE8E5F" transform="translate(176,54)"/>
<path d="M0 0 C0.66 0.33 1.32 0.66 2 1 C1.34 1.721875 0.68 2.44375 0 3.1875 C-2.15319133 6.2154253 -2.50104005 7.39251163 -2 11 C-0.50256881 12.49743119 0.98824239 12.33202693 3.0625 12.5625 C4.361875 12.706875 5.66125 12.85125 7 13 C7 13.33 7 13.66 7 14 C5.54207116 14.05399736 4.08357288 14.09279177 2.625 14.125 C1.81289062 14.14820312 1.00078125 14.17140625 0.1640625 14.1953125 C-2 14 -2 14 -4 12 C-4.49529242 8.96489411 -4.47833833 6.0368922 -4 3 C-2 0.9375 -2 0.9375 0 0 Z " fill="#F4D1B8" transform="translate(166,54)"/>
<path d="M0 0 C0.66 0.66 1.32 1.32 2 2 C1.74739753 5.78903708 -0.27849443 7.54186593 -3 10 C-3.99 9.67 -4.98 9.34 -6 9 C-4.47291037 5.56404834 -2.40072955 2.88087546 0 0 Z " fill="#313131" transform="translate(23,16)"/>
<path d="M0 0 C3.96 0 7.92 0 12 0 C12.33 0.66 12.66 1.32 13 2 C9.84493858 2.93619813 7.03413498 3.1057123 3.75 3.0625 C2.85796875 3.05347656 1.9659375 3.04445313 1.046875 3.03515625 C0.37140625 3.02355469 -0.3040625 3.01195313 -1 3 C-0.67 2.01 -0.34 1.02 0 0 Z " fill="#DA6D2D" transform="translate(122,70)"/>
<path d="M0 0 C0.33 0 0.66 0 1 0 C1.66 3.96 2.32 7.92 3 12 C3.99 12.33 4.98 12.66 6 13 C6 13.66 6 14.32 6 15 C6.66 15.33 7.32 15.66 8 16 C5.1875 16 5.1875 16 2 15 C-0.53965139 11.30759904 -1.29790284 7.39849104 -0.6875 3 C-0.460625 2.01 -0.23375 1.02 0 0 Z " fill="#DC8F65" transform="translate(244,52)"/>
<path d="M0 0 C1.66285211 3.32570422 -0.01920148 6.68360945 -0.9375 10.125 C-1.13279297 10.87910156 -1.32808594 11.63320313 -1.52929688 12.41015625 C-2.01323358 14.27508306 -2.50580769 16.13776459 -3 18 C-3.33 18 -3.66 18 -4 18 C-4.738041 5.33029613 -4.738041 5.33029613 0 0 Z " fill="#D98857" transform="translate(332,38)"/>
<path d="M0 0 C2.475 0.99 2.475 0.99 5 2 C5.66 1.34 6.32 0.68 7 0 C7.99 0.33 8.98 0.66 10 1 C10 5 10 5 9 8 C7.68388323 7.04663979 6.37221039 6.08714226 5.0625 5.125 C4.33160156 4.59132813 3.60070312 4.05765625 2.84765625 3.5078125 C1 2 1 2 0 0 Z " fill="#454546" transform="translate(13,90)"/>
<path d="M0 0 C0.99 0.33 1.98 0.66 3 1 C1.61211198 2.30020011 0.21430742 3.5898193 -1.1875 4.875 C-1.96480469 5.59429687 -2.74210937 6.31359375 -3.54296875 7.0546875 C-5.97689776 8.9817092 -8.07536646 10.01300111 -11 11 C-11 9 -11 9 -9.8125 7.5625 C-7.69118943 5.73378399 -5.39909971 4.43945982 -3 3 C-1.24850835 1.41754725 -1.24850835 1.41754725 0 0 Z " fill="#4B4B4C" transform="translate(85,86)"/>
<path d="M0 0 C-0.1875 1.875 -0.1875 1.875 -1 4 C-3.5625 5.25 -3.5625 5.25 -6 6 C-6 5.34 -6 4.68 -6 4 C-7.65 4 -9.3 4 -11 4 C-4.625 -0.25 -4.625 -0.25 0 0 Z " fill="#D38752" transform="translate(273,65)"/>
<path d="M0 0 C2.31 0 4.62 0 7 0 C7.66 1.32 8.32 2.64 9 4 C7.33333333 4 5.66666667 4 4 4 C3.01 4.33 2.02 4.66 1 5 C0.67 3.35 0.34 1.7 0 0 Z " fill="#FAECE4" transform="translate(251,34)"/>
<path d="M0 0 C0.33 0 0.66 0 1 0 C1.02578125 0.61488281 1.0515625 1.22976562 1.078125 1.86328125 C1.2814648 6.99254591 1.2814648 6.99254591 4.0625 11.0625 C4.701875 11.371875 5.34125 11.68125 6 12 C5.01 12.66 4.02 13.32 3 14 C2.34 13.67 1.68 13.34 1 13 C-1.11683841 13.89163577 -1.11683841 13.89163577 -3 15 C-2.690625 14.38125 -2.38125 13.7625 -2.0625 13.125 C-0.5960722 8.81197706 -0.33380974 4.5240004 0 0 Z " fill="#F4D7C4" transform="translate(329,24)"/>
<path d="M0 0 C6.6 0 13.2 0 20 0 C20.33 1.32 20.66 2.64 21 4 C19.68 3.67 18.36 3.34 17 3 C17 2.34 17 1.68 17 1 C8.585 1.495 8.585 1.495 0 2 C0 1.34 0 0.68 0 0 Z " fill="#D78654" transform="translate(117,12)"/>
<path d="M0 0 C1.65 0 3.3 0 5 0 C5.3125 2.75 5.3125 2.75 5 6 C2.5 8.375 2.5 8.375 0 10 C-1.32 9.34 -2.64 8.68 -4 8 C-2.20963542 7.05598958 -0.41927083 6.11197917 1.37109375 5.16796875 C3.32267987 4.00980201 3.32267987 4.00980201 4 1 C2.68 0.67 1.36 0.34 0 0 Z " fill="#F8E1D2" transform="translate(269,64)"/>
<path d="M0 0 C0.66 0.33 1.32 0.66 2 1 C1.67 1.66 1.34 2.32 1 3 C1.66 3 2.32 3 3 3 C2.34 4.32 1.68 5.64 1 7 C-1.31 7 -3.62 7 -6 7 C-5.67 6.34 -5.34 5.68 -5 5 C-4.34 5 -3.68 5 -3 5 C-2.87625 4.360625 -2.7525 3.72125 -2.625 3.0625 C-2.41875 2.381875 -2.2125 1.70125 -2 1 C-1.34 0.67 -0.68 0.34 0 0 Z " fill="#D66D26" transform="translate(361,65)"/>
<path d="M0 0 C0.33 0 0.66 0 1 0 C1.06058594 1.21558594 1.12117188 2.43117187 1.18359375 3.68359375 C1.26798332 5.26824228 1.3526321 6.85287702 1.4375 8.4375 C1.47681641 9.23994141 1.51613281 10.04238281 1.55664062 10.86914062 C1.4054296 14.75239561 1.4054296 14.75239561 3 18 C3.04080783 19.99958364 3.04254356 22.00045254 3 24 C0.38710224 20.99833199 -0.36930244 19.20372689 -0.29296875 15.234375 C-0.28330078 14.34492187 -0.27363281 13.45546875 -0.26367188 12.5390625 C-0.23853516 11.61867188 -0.21339844 10.69828125 -0.1875 9.75 C-0.16719727 8.34621094 -0.16719727 8.34621094 -0.14648438 6.9140625 C-0.11119954 4.60878673 -0.06190281 2.3046894 0 0 Z " fill="#F3D0BA" transform="translate(104,32)"/>
<path d="M0 0 C3.875 1.75 3.875 1.75 5 4 C5.16796875 6.05859375 5.16796875 6.05859375 5.1875 8.4375 C5.20167969 9.21996094 5.21585937 10.00242187 5.23046875 10.80859375 C5 13 5 13 3 16 C3 11.71 3 7.42 3 3 C2.01 3.33 1.02 3.66 0 4 C0 2.68 0 1.36 0 0 Z " fill="#65873F" transform="translate(94,4)"/>
<path d="M0 0 C-2.07553648 0.5534764 -3.84365964 1 -6 1 C-6.66 2.32 -7.32 3.64 -8 5 C-12.455 4.01 -12.455 4.01 -17 3 C-17 2.67 -17 2.34 -17 2 C-14.69 2 -12.38 2 -10 2 C-10 1.34 -10 0.68 -10 0 C-6.30581799 -1.231394 -3.7943739 -0.64432764 0 0 Z " fill="#D77742" transform="translate(182,32)"/>
<path d="M0 0 C4.95 0 9.9 0 15 0 C15 0.33 15 0.66 15 1 C13.2508503 1.33776684 11.50063855 1.67003671 9.75 2 C8.28820312 2.2784375 8.28820312 2.2784375 6.796875 2.5625 C4 3 4 3 0 3 C0 2.01 0 1.02 0 0 Z " fill="#F9DBC9" transform="translate(378,29)"/>
<path d="M0 0 C2 0.6875 2 0.6875 4 2.6875 C0.86501708 4.54526765 -1.37471432 4.88890476 -5 4.6875 C-4.625 2.75 -4.625 2.75 -4 0.6875 C-2 -0.3125 -2 -0.3125 0 0 Z " fill="#DD7B3A" transform="translate(114,9.3125)"/>
<path d="M0 0 C3.3 0.33 6.6 0.66 10 1 C10 1.66 10 2.32 10 3 C13.3 3 16.6 3 20 3 C20 3.33 20 3.66 20 4 C12.56621057 4.33452052 6.80122845 4.13902852 0 1 C0 0.67 0 0.34 0 0 Z " fill="#D79064" transform="translate(109,71)"/>
<path d="M0 0 C0.66 0 1.32 0 2 0 C2.33 1.32 2.66 2.64 3 4 C6.63 4.66 10.26 5.32 14 6 C14 6.33 14 6.66 14 7 C5.22421525 7.76681614 5.22421525 7.76681614 2.22265625 5.88671875 C0.875 4.5 0.875 4.5 -1 2 C-0.67 1.34 -0.34 0.68 0 0 Z " fill="#D88450" transform="translate(464,67)"/>
<path d="M0 0 C3.05673451 2.03782301 4.65036063 3.57770018 6 7 C6.1953125 9.578125 6.1953125 9.578125 6.125 12.25 C6.10695313 13.14203125 6.08890625 14.0340625 6.0703125 14.953125 C6.03550781 15.96632813 6.03550781 15.96632813 6 17 C5.67 17 5.34 17 5 17 C4.97421875 16.37351562 4.9484375 15.74703125 4.921875 15.1015625 C4.86515625 14.28429688 4.8084375 13.46703125 4.75 12.625 C4.70359375 11.81289063 4.6571875 11.00078125 4.609375 10.1640625 C4.2077908 7.81161073 4.2077908 7.81161073 1.953125 6.7109375 C1.30859375 6.47632813 0.6640625 6.24171875 0 6 C0 4.02 0 2.04 0 0 Z " fill="#DA8B5D" transform="translate(268,34)"/>
<path d="M0 0 C1.98 0.66 3.96 1.32 6 2 C6 2.99 6 3.98 6 5 C4.02 5.33 2.04 5.66 0 6 C-1.125 2.25 -1.125 2.25 0 0 Z " fill="#E56C2A" transform="translate(244,66)"/>
<path d="M0 0 C0.99 0.33 1.98 0.66 3 1 C4.33106622 1.34227417 5.66400079 1.67751743 7 2 C6.67 3.32 6.34 4.64 6 6 C3.03 5.505 3.03 5.505 0 5 C0 3.35 0 1.7 0 0 Z " fill="#D68854" transform="translate(455,32)"/>
<path d="M0 0 C3.3125 -0.25 3.3125 -0.25 7 0 C9 1.75 9 1.75 10 4 C9.6875 6.25 9.6875 6.25 9 8 C8.1646875 6.824375 8.1646875 6.824375 7.3125 5.625 C4.92331435 2.91295142 3.39926587 2.03866457 0 1 C0 0.67 0 0.34 0 0 Z " fill="#5F8641" transform="translate(78,12)"/>
<path d="M0 0 C0.99 0 1.98 0 3 0 C3.125 6.625 3.125 6.625 2 10 C2.99 10.33 3.98 10.66 5 11 C3.02 11.99 3.02 11.99 1 13 C0.93941406 12.38511719 0.87882812 11.77023437 0.81640625 11.13671875 C0.73261719 10.32847656 0.64882812 9.52023437 0.5625 8.6875 C0.48128906 7.88699219 0.40007812 7.08648437 0.31640625 6.26171875 C0.04734307 3.83912821 0.04734307 3.83912821 -1 1 C-0.67 0.67 -0.34 0.34 0 0 Z " fill="#F0F1DE" transform="translate(98,4)"/>
<path d="M0 0 C2.62561109 -0.08074203 5.24875676 -0.1403623 7.875 -0.1875 C8.99455078 -0.22520508 8.99455078 -0.22520508 10.13671875 -0.26367188 C12.3046875 -0.29296875 12.3046875 -0.29296875 16 0 C16.66 0.99 17.32 1.98 18 3 C12.06 2.34 6.12 1.68 0 1 C0 0.67 0 0.34 0 0 Z " fill="#FADECF" transform="translate(249,29)"/>
<path d="M0 0 C0.66 0.33 1.32 0.66 2 1 C-1.49087093 5.0042343 -3.64951939 6.62671065 -9 7 C-3.51752022 1.21293801 -3.51752022 1.21293801 0 0 Z " fill="#D88A5D" transform="translate(108,11)"/>
<path d="M0 0 C3.96 0.33 7.92 0.66 12 1 C10 3 10 3 7.6171875 3.1953125 C6.71226562 3.17210938 5.80734375 3.14890625 4.875 3.125 C3.50988281 3.09792969 3.50988281 3.09792969 2.1171875 3.0703125 C1.41851562 3.04710938 0.71984375 3.02390625 0 3 C0 2.01 0 1.02 0 0 Z " fill="#F6E1D1" transform="translate(466,73)"/>
<path d="M0 0 C2.375 1.0625 2.375 1.0625 5 3 C6.3125 6.6875 6.3125 6.6875 7 10 C6.34 9.67 5.68 9.34 5 9 C5 8.01 5 7.02 5 6 C4.01 6 3.02 6 2 6 C2 5.34 2 4.68 2 4 C1.34 3.67 0.68 3.34 0 3 C0 2.01 0 1.02 0 0 Z " fill="#D27A45" transform="translate(442,31)"/>
<path d="M0 0 C0.33 0.99 0.66 1.98 1 3 C0.34 3 -0.32 3 -1 3 C-1 3.66 -1 4.32 -1 5 C-3.97 5 -6.94 5 -10 5 C-9.34 4.67 -8.68 4.34 -8 4 C-7.67 3.34 -7.34 2.68 -7 2 C-4.69 2 -2.38 2 0 2 C0 1.34 0 0.68 0 0 Z " fill="#D9885A" transform="translate(203,67)"/>
<path d="M0 0 C3 1 3 1 4.203125 2.77734375 C4.54859375 3.49019531 4.8940625 4.20304687 5.25 4.9375 C5.78367188 6.00291016 5.78367188 6.00291016 6.328125 7.08984375 C6.54984375 7.72019531 6.7715625 8.35054687 7 9 C6.67 9.66 6.34 10.32 6 11 C1.9957657 7.50912907 0.37328935 5.35048061 0 0 Z " fill="#D28352" transform="translate(233,58)"/>
<path d="M0 0 C1.36125 0.12375 1.36125 0.12375 2.75 0.25 C1.88375 0.559375 1.88375 0.559375 1 0.875 C-2.06410544 2.74750888 -3.40539968 5.21958519 -5.25 8.25 C-5.91 6.93 -6.57 5.61 -7.25 4.25 C-4.83923194 1.28290085 -3.90322061 0.30024774 0 0 Z " fill="#D8773B" transform="translate(220.25,36.75)"/>
<path d="M0 0 C0 0.66 0 1.32 0 2 C1.65 2 3.3 2 5 2 C3.35 3.32 1.7 4.64 0 6 C-0.33 4.68 -0.66 3.36 -1 2 C-2.65 2.66 -4.3 3.32 -6 4 C-2.25 0 -2.25 0 0 0 Z " fill="#DA8553" transform="translate(246,32)"/>
<path d="M0 0 C2.97 0 5.94 0 9 0 C9.33 2.31 9.66 4.62 10 7 C9.01 7.495 9.01 7.495 8 8 C7.67 5.69 7.34 3.38 7 1 C4.69 1 2.38 1 0 1 C0 0.67 0 0.34 0 0 Z " fill="#D79066" transform="translate(223,30)"/>
<path d="M0 0 C0 0.66 0 1.32 0 2 C-6.75 3.125 -6.75 3.125 -9 2 C-9 2.66 -9 3.32 -9 4 C-9.66 4 -10.32 4 -11 4 C-10.67 3.01 -10.34 2.02 -10 1 C-6.52674819 -0.1577506 -3.63932552 -0.06866652 0 0 Z " fill="#D56D28" transform="translate(353,31)"/>
<path d="M0 0 C0.66 0.33 1.32 0.66 2 1 C1.67 1.99 1.34 2.98 1 4 C0.01 4.33 -0.98 4.66 -2 5 C-2.33 7.97 -2.66 10.94 -3 14 C-3.33 14 -3.66 14 -4 14 C-4.63019694 4.82713348 -4.63019694 4.82713348 -2 1.375 C-1.34 0.92125 -0.68 0.4675 0 0 Z " fill="#DB8F67" transform="translate(156,53)"/>
<path d="M0 0 C1.65 0.33 3.3 0.66 5 1 C5 1.66 5 2.32 5 3 C4.34 3 3.68 3 3 3 C3 3.66 3 4.32 3 5 C1.68 5 0.36 5 -1 5 C-0.67 3.35 -0.34 1.7 0 0 Z " fill="#DE6824" transform="translate(176,32)"/>
<path d="M0 0 C1.28132813 0.00902344 2.56265625 0.01804687 3.8828125 0.02734375 C4.87023437 0.03894531 5.85765625 0.05054687 6.875 0.0625 C6.875 0.3925 6.875 0.7225 6.875 1.0625 C6.13894531 1.12308594 5.40289062 1.18367188 4.64453125 1.24609375 C3.66871094 1.32988281 2.69289063 1.41367187 1.6875 1.5 C0.72457031 1.58121094 -0.23835938 1.66242187 -1.23046875 1.74609375 C-3.91149602 2.03916151 -6.4912986 2.48953754 -9.125 3.0625 C-9.125 2.4025 -9.125 1.7425 -9.125 1.0625 C-6.12186252 -0.43906874 -3.33432478 -0.03031204 0 0 Z " fill="#FBE3D2" transform="translate(348.125,28.9375)"/>
<path d="M0 0 C0.99 0 1.98 0 3 0 C3.33 0.99 3.66 1.98 4 3 C3.01 3.495 3.01 3.495 2 4 C2 5.65 2 7.3 2 9 C1.34 9 0.68 9 0 9 C-1.10844919 5.67465243 -0.84454356 3.37817425 0 0 Z " fill="#D76A1F" transform="translate(467,19)"/>
<path d="M0 0 C0.66 0.33 1.32 0.66 2 1 C2 1.66 2 2.32 2 3 C1.34 3 0.68 3 0 3 C-0.268125 3.78375 -0.53625 4.5675 -0.8125 5.375 C-2 8 -2 8 -5 10 C-3.84414715 6.08788267 -2.64465038 3.1254959 0 0 Z " fill="#484848" transform="translate(5,18)"/>
<path d="M0 0 C1.9375 1.125 1.9375 1.125 4 3 C4.75 6.1875 4.75 6.1875 5 9 C3.0625 8.4375 3.0625 8.4375 1 7 C0.25 3.375 0.25 3.375 0 0 Z " fill="#DA7743" transform="translate(366,35)"/>
<path d="M0 0 C0 0.66 0 1.32 0 2 C-0.99 2.495 -0.99 2.495 -2 3 C-2.33 3.99 -2.66 4.98 -3 6 C-4.65 6 -6.3 6 -8 6 C-3.38461538 0 -3.38461538 0 0 0 Z " fill="#D6804D" transform="translate(341,32)"/>
<path d="M0 0 C2.97 0 5.94 0 9 0 C9 0.33 9 0.66 9 1 C7.35 1 5.7 1 4 1 C4 1.99 4 2.98 4 4 C2.68 4 1.36 4 0 4 C0 2.68 0 1.36 0 0 Z " fill="#D0773E" transform="translate(404,32)"/>
<path d="M0 0 C1.98 0.99 1.98 0.99 4 2 C4 5.63 4 9.26 4 13 C3.67 13 3.34 13 3 13 C2.86722656 12.31292969 2.73445313 11.62585937 2.59765625 10.91796875 C2.42105469 10.01691406 2.24445313 9.11585937 2.0625 8.1875 C1.88847656 7.29417969 1.71445312 6.40085937 1.53515625 5.48046875 C1.02258847 2.88602829 1.02258847 2.88602829 0 0 Z " fill="#FBECE1" transform="translate(327,18)"/>
<path d="M0 0 C3.99996286 1.33332095 4.83782337 3.4957827 7 7 C4.625 6.6875 4.625 6.6875 2 6 C0 3 0 3 0 0 Z " fill="#F7DFCC" transform="translate(234,64)"/>
<path d="M0 0 C1.14926266 0.95421808 2.29430541 1.91352045 3.4375 2.875 C4.07558594 3.40867188 4.71367188 3.94234375 5.37109375 4.4921875 C7 6 7 6 8 8 C5.03 7.505 5.03 7.505 2 7 C1.34 4.69 0.68 2.38 0 0 Z " fill="#D47E4D" transform="translate(108,60)"/>
<path d="M0 0 C0 3.3 0 6.6 0 10 C-2 6 -2 6 -3 3 C-3.66 2.67 -4.32 2.34 -5 2 C-2 0 -2 0 0 0 Z " fill="#523426" transform="translate(99,56)"/>
<path d="M0 0 C0.33 0 0.66 0 1 0 C1.2493357 1.60115576 1.47378648 3.20620159 1.6875 4.8125 C1.87892578 6.15248047 1.87892578 6.15248047 2.07421875 7.51953125 C2 10 2 10 -1 13 C-0.67 8.71 -0.34 4.42 0 0 Z " fill="#FCE9DA" transform="translate(374,48)"/>
<path d="M0 0 C2.95409701 1.37154504 5.44008376 2.98863724 8 5 C5.36 4.67 2.72 4.34 0 4 C0 2.68 0 1.36 0 0 Z " fill="#F9E6D9" transform="translate(99,66)"/>
<path d="M0 0 C2.97 0.99 5.94 1.98 9 3 C8.67 4.32 8.34 5.64 8 7 C8 6.01 8 5.02 8 4 C5.69 3.67 3.38 3.34 1 3 C0.67 2.01 0.34 1.02 0 0 Z " fill="#F5DDCC" transform="translate(216,66)"/>
<path d="M0 0 C0.33 0 0.66 0 1 0 C1.33 1.98 1.66 3.96 2 6 C-0.31 6.66 -2.62 7.32 -5 8 C-4.19185349 6.66402348 -3.37836819 5.331275 -2.5625 4 C-2.11003906 3.2575 -1.65757812 2.515 -1.19140625 1.75 C-0.79824219 1.1725 -0.40507812 0.595 0 0 Z " fill="#F8E3D7" transform="translate(372,61)"/>
<path d="M0 0 C0.33 1.32 0.66 2.64 1 4 C1.78375 3.505 2.5675 3.01 3.375 2.5 C6 1 6 1 8 1 C7.67 1.99 7.34 2.98 7 4 C3.9375 5.1875 3.9375 5.1875 1 6 C0 5 0 5 -0.0625 2.4375 C-0.041875 1.633125 -0.02125 0.82875 0 0 Z " fill="#E6A57E" transform="translate(420,31)"/>
<path d="M0 0 C-1 3 -1 3 -2.8125 4.25 C-5.33943414 5.11637742 -6.52221994 4.88492145 -9 4 C-3.375 0 -3.375 0 0 0 Z " fill="#E5F0DE" transform="translate(97,47)"/>
<path d="M0 0 C0.99 0 1.98 0 3 0 C3 1.32 3 2.64 3 4 C3.66 4.33 4.32 4.66 5 5 C2.03 4.505 2.03 4.505 -1 4 C-0.67 2.68 -0.34 1.36 0 0 Z " fill="#DD6A24" transform="translate(339,66)"/>
<path d="M0 0 C1.98 0.495 1.98 0.495 4 1 C3.67 2.65 3.34 4.3 3 6 C1.5 4.6875 1.5 4.6875 0 3 C0 2.01 0 1.02 0 0 Z " fill="#D58D64" transform="translate(144,61)"/>
<path d="M0 0 C0.66 1.32 1.32 2.64 2 4 C1 5 1 5 -1.5625 5.0625 C-2.7690625 5.0315625 -2.7690625 5.0315625 -4 5 C-3 2 -3 2 0 0 Z " fill="#E36D24" transform="translate(317,39)"/>
<path d="M0 0 C1.32 0.66 2.64 1.32 4 2 C0.09971775 4.60018816 -3.47434569 4.15085514 -8 4 C-8 3.67 -8 3.34 -8 3 C-6.865625 2.87625 -5.73125 2.7525 -4.5625 2.625 C-3.386875 2.41875 -2.21125 2.2125 -1 2 C-0.67 1.34 -0.34 0.68 0 0 Z " fill="#F8D9C8" transform="translate(307,40)"/>
<path d="M0 0 C2.31 0 4.62 0 7 0 C6.67 1.32 6.34 2.64 6 4 C5.01 3.67 4.02 3.34 3 3 C3 2.34 3 1.68 3 1 C2.01 0.67 1.02 0.34 0 0 Z " fill="#E96C1F" transform="translate(385,12)"/>
</svg>
